<?xml version="1.0" encoding="UTF-8" standalone="no"?>
<svg width="107px" height="30px" viewBox="0 0 107 30" version="1.1" xmlns="http://www.w3.org/2000/svg" xmlns:xlink="http://www.w3.org/1999/xlink">
    <!-- Generator: Sketch 45.2 (43514) - http://www.bohemiancoding.com/sketch -->
    <title>Group</title>
    <desc>Created with Sketch.</desc>
    <defs>
        <rect id="path-1" x="0" y="0" width="106.002321" height="29.1202567" rx="3"></rect>
    </defs>
    <g id="Page-1" stroke="none" stroke-width="1" fill="none" fill-rule="evenodd">
        <g id="PAYMENT" transform="translate(-571.000000, -471.000000)">
            <g id="Group-3" transform="translate(183.000000, 287.000000)">
                <g id="Group" transform="translate(388.611670, 184.040022)">
                    <g id="Rectangle-7">
                        <use fill="#1E6F89" fill-rule="evenodd" xlink:href="#path-1"></use>
                        <rect stroke="#FFFFFF" stroke-width="1" x="0.5" y="0.5" width="105.002321" height="28.1202567" rx="3"></rect>
                    </g>
                    <path d="M16.9157596,9.52253347 L20.6507596,9.52253347 C21.330763,9.52253347 21.8907574,9.61503254 22.3307596,9.80003347 C22.7707618,9.98503439 23.1182583,10.220032 23.3732596,10.5050335 C23.6282608,10.7900349 23.8057591,11.1100317 23.9057596,11.4650335 C24.0057601,11.8200352 24.0557596,12.1625318 24.0557596,12.4925335 C24.0557596,12.8225351 24.0057601,13.1650317 23.9057596,13.5200335 C23.8057591,13.8750352 23.6282608,14.195032 23.3732596,14.4800335 C23.1182583,14.7650349 22.7707618,15.0000325 22.3307596,15.1850335 C21.8907574,15.3700344 21.330763,15.4625335 20.6507596,15.4625335 L18.3557596,15.4625335 L18.3557596,20.1425335 L16.9157596,20.1425335 L16.9157596,9.52253347 Z M18.3557596,14.2025335 L20.2457596,14.2025335 C20.525761,14.2025335 20.8032582,14.1800337 21.0782596,14.1350335 C21.3532609,14.0900332 21.5982585,14.0075341 21.8132596,13.8875335 C22.0282606,13.7675329 22.2007589,13.5950346 22.3307596,13.3700335 C22.4607602,13.1450323 22.5257596,12.8525353 22.5257596,12.4925335 C22.5257596,12.1325317 22.4607602,11.8400346 22.3307596,11.6150335 C22.2007589,11.3900323 22.0282606,11.2175341 21.8132596,11.0975335 C21.5982585,10.9775329 21.3532609,10.8950337 21.0782596,10.8500335 C20.8032582,10.8050332 20.525761,10.7825335 20.2457596,10.7825335 L18.3557596,10.7825335 L18.3557596,14.2025335 Z M28.0307596,9.52253347 L29.3357596,9.52253347 L33.8807596,20.1425335 L32.2007596,20.1425335 L31.1357596,17.5175335 L26.0807596,17.5175335 L25.0307596,20.1425335 L23.3507596,20.1425335 L28.0307596,9.52253347 Z M30.6107596,16.2575335 L28.6307596,11.3825335 L28.6007596,11.3825335 L26.5907596,16.2575335 L30.6107596,16.2575335 Z M35.2607596,9.52253347 L36.7007596,9.52253347 L36.7007596,20.1425335 L35.2607596,20.1425335 L35.2607596,9.52253347 Z M39.4307596,9.52253347 L46.2857596,9.52253347 L46.2857596,10.8725335 L40.8707596,10.8725335 L40.8707596,14.0375335 L45.9107596,14.0375335 L45.9107596,15.3875335 L40.8707596,15.3875335 L40.8707596,18.7925335 L46.5557596,18.7925335 L46.5557596,20.1425335 L39.4307596,20.1425335 L39.4307596,9.52253347 Z M48.4907596,9.52253347 L50.6357596,9.52253347 L54.0107596,17.5625335 L54.0707596,17.5625335 L57.4157596,9.52253347 L59.5607596,9.52253347 L59.5607596,20.1425335 L58.1207596,20.1425335 L58.1207596,11.4125335 L58.0907596,11.4125335 L54.5057596,20.1425335 L53.5457596,20.1425335 L49.9607596,11.4125335 L49.9307596,11.4125335 L49.9307596,20.1425335 L48.4907596,20.1425335 L48.4907596,9.52253347 Z M62.1857596,9.52253347 L69.0407596,9.52253347 L69.0407596,10.8725335 L63.6257596,10.8725335 L63.6257596,14.0375335 L68.6657596,14.0375335 L68.6657596,15.3875335 L63.6257596,15.3875335 L63.6257596,18.7925335 L69.3107596,18.7925335 L69.3107596,20.1425335 L62.1857596,20.1425335 L62.1857596,9.52253347 Z M71.3507596,9.52253347 L73.2407596,9.52253347 L79.0907596,18.2525335 L79.1207596,18.2525335 L79.1207596,9.52253347 L80.5607596,9.52253347 L80.5607596,20.1425335 L78.7307596,20.1425335 L72.8207596,11.4125335 L72.7907596,11.4125335 L72.7907596,20.1425335 L71.3507596,20.1425335 L71.3507596,9.52253347 Z M85.5107596,10.8725335 L82.0907596,10.8725335 L82.0907596,9.52253347 L90.3707596,9.52253347 L90.3707596,10.8725335 L86.9507596,10.8725335 L86.9507596,20.1425335 L85.5107596,20.1425335 L85.5107596,10.8725335 Z" id="PAIEMENT" fill="#A0A4B8"></path>
                </g>
            </g>
        </g>
    </g>
</svg>