<?xml version="1.0" encoding="UTF-8" standalone="no"?>
<svg width="375px" height="116px" viewBox="0 0 375 116" version="1.1" xmlns="http://www.w3.org/2000/svg" xmlns:xlink="http://www.w3.org/1999/xlink">
    <!-- Generator: Sketch 45.2 (43514) - http://www.bohemiancoding.com/sketch -->
    <title>Group</title>
    <desc>Created with Sketch.</desc>
    <defs>
        <path d="M0.0966827307,94.1223094 C4.30596124,-27.5787254 147.359314,3.57094251 147.359314,3.57094251 C147.359314,3.57094251 147.359314,318.38156 147.359314,490.375068 C147.359314,491.733936 147.359314,523.628072 147.359314,523.628072 C147.359314,523.628072 -4.11259578,215.823344 0.0966827307,94.1223094 Z" id="path-1"></path>
        <path d="M132.482655,59.5160981 L147.603508,59.5160981 L147.603511,267.30037 C147.603511,267.30037 -134.208341,59.5160981 132.482655,59.5160981 Z" id="path-2"></path>
    </defs>
    <g id="Page-1" stroke="none" stroke-width="1" fill="none" fill-rule="evenodd">
        <g id="iPhone-7" transform="translate(0.000000, -551.000000)">
            <g id="Group" transform="translate(188.000000, 625.000000) scale(1, -1) rotate(-90.000000) translate(-188.000000, -625.000000) translate(114.000000, 363.000000)">
                <g id="Rectangle-1">
                    <use fill="#7E1421" fill-rule="evenodd" xlink:href="#path-1"></use>
                    <path stroke="#7E1421" stroke-width="1" d="M146.859314,521.466592 C146.859314,521.40007 146.859314,521.330997 146.859314,521.259252 L146.859314,492.129117 L146.859314,490.375068 C146.859314,402.906278 146.859314,402.906278 146.859314,301.527844 L146.859314,286.042415 C146.859314,178.912587 146.859314,178.912587 146.859314,90.9410084 L146.859314,9.81683091 C146.859314,5.37318653 146.859314,4.75533143 146.859314,3.97724563 C146.759357,3.95689793 146.644326,3.93372457 146.514462,3.9079048 C145.903796,3.78649157 145.186422,3.65110488 144.36769,3.50523061 C142.026419,3.08808407 139.343825,2.67079964 136.362708,2.28125648 C115.951856,-0.385833139 94.1820036,-0.390117979 73.7867611,4.04021393 C53.8302199,8.37524947 37.093473,16.675657 24.6178357,29.6183384 C9.9231864,44.8631036 1.56505275,66.1328932 0.596383933,94.1395926 C-0.837368159,135.593042 15.5602355,201.220331 45.6863173,284.366875 C54.2515215,308.006428 63.7950733,332.676374 74.1480218,358.104893 C90.2612535,397.6816 107.525778,437.157516 124.790298,474.681054 C130.832852,487.814233 136.443741,499.765165 141.479059,510.302439 C143.241333,513.990301 144.805755,517.237978 146.154336,520.016545 C146.406817,520.536747 146.641924,521.02028 146.859314,521.466592 Z"></path>
                </g>
                <g id="Rectangle-9">
                    <use fill="#7E1421" fill-rule="evenodd" xlink:href="#path-2"></use>
                    <path stroke="#FFFFFF" stroke-width="1" d="M147.103511,266.304528 L147.103508,60.0160981 L132.482655,60.0160981 C70.1403375,60.0160981 34.6612314,71.3296726 22.769604,92.2296568 C12.734368,109.866963 19.6646717,134.040602 40.4407805,163.117552 C51.3856362,178.435291 65.8676899,194.66851 83.0258554,211.382896 C97.2170941,225.207092 112.423564,238.57978 127.630137,250.992232 C132.952444,255.336596 137.89442,259.250475 142.329217,262.670356 C143.881106,263.867091 145.258649,264.916523 146.445992,265.810715 C146.68265,265.988943 146.901945,266.153608 147.103511,266.304528 Z"></path>
                </g>
            </g>
        </g>
    </g>
</svg>