<?xml version="1.0" encoding="UTF-8" standalone="no"?>
<svg width="375px" height="75px" viewBox="0 0 375 75" version="1.1" xmlns="http://www.w3.org/2000/svg" xmlns:xlink="http://www.w3.org/1999/xlink">
    <!-- Generator: Sketch 45.2 (43514) - http://www.bohemiancoding.com/sketch -->
    <title>Group</title>
    <desc>Created with Sketch.</desc>
    <defs>
        <path d="M0.0567166014,55.2145918 C2.52598872,-16.1783967 86.4448019,2.09480764 86.4448019,2.09480764 C86.4448019,2.09480764 86.4448015,186.770894 86.4448014,287.666753 C86.4448014,288.463901 86.4448014,307.173829 86.4448014,307.173829 C86.4448014,307.173829 -2.41255552,126.60758 0.0567166014,55.2145918 Z" id="path-1"></path>
        <path d="M77.7177667,34.9136892 L86.5880523,34.9136892 L86.5880537,156.805341 C86.5880537,156.805341 -78.7300994,34.9136892 77.7177667,34.9136892 Z" id="path-2"></path>
        <path d="M0.0524163774,51.0282489 C2.33446952,-14.9517588 79.8906001,1.93598037 79.8906001,1.93598037 C79.8906001,1.93598037 79.8905998,172.610018 79.8905996,265.856004 C79.8905996,266.592712 79.8905996,283.884063 79.8905996,283.884063 C79.8905996,283.884063 -2.22963676,117.008257 0.0524163774,51.0282489 Z" id="path-3"></path>
        <path d="M71.8252444,32.2665507 L80.0229893,32.2665507 L80.0229907,144.916438 C80.0229907,144.916438 -72.7608226,32.2665507 71.8252444,32.2665507 Z" id="path-4"></path>
    </defs>
    <g id="Page-1" stroke="none" stroke-width="1" fill="none" fill-rule="evenodd">
        <g id="iPhone-7">
            <g id="Group" transform="translate(-41.000000, -12.000000)">
                <g transform="translate(154.000000, 43.500000) scale(1, -1) rotate(-90.000000) translate(-154.000000, -43.500000) translate(110.500000, -110.500000)">
                    <g id="Rectangle-1">
                        <use fill="#7E1421" fill-rule="evenodd" xlink:href="#path-1"></use>
                        <path stroke="#7E1421" stroke-width="1" d="M85.9448014,305.008082 C85.9448014,304.402331 85.9448014,303.555145 85.9448014,302.293583 L85.9448014,290.929956 L85.9448014,287.666753 C85.9448015,236.355289 85.9448015,236.355289 85.9448016,176.884066 L85.9448019,5.75880829 C85.9448019,3.47394721 85.9448019,2.91333811 85.9448019,2.50235164 C85.9330555,2.50000784 85.9210829,2.49762287 85.9088847,2.4951976 C85.5519836,2.4242382 85.132503,2.34507149 84.6535828,2.25974181 C83.2832025,2.01557983 81.7126733,1.77127995 79.9671265,1.54318905 C68.0151504,-0.0185777577 55.2668308,-0.0210869392 43.329105,2.57207113 C17.4753389,8.18812421 1.61440201,24.6428388 0.556417804,55.2318749 C-0.283463501,79.514997 9.33102424,117.994569 26.9951053,166.746587 C32.0187095,180.611494 37.6162447,195.081043 43.688585,209.995694 C53.1397689,233.209333 63.266385,256.364182 73.3929965,278.373846 C76.9372831,286.077169 80.2283514,293.086992 83.1817801,299.267552 C84.2153924,301.430564 85.1329409,303.335359 85.9238734,304.964966 C85.9308722,304.979386 85.9378482,304.993758 85.9448014,305.008082 Z"></path>
                    </g>
                    <g id="Rectangle-9">
                        <use fill="#7E1421" fill-rule="evenodd" xlink:href="#path-2"></use>
                        <path stroke="#FFFFFF" stroke-width="1" d="M86.0880537,155.807541 L86.0880523,35.4136892 L77.7177667,35.4136892 C41.2136832,35.4136892 20.465052,42.0300111 13.5368852,54.206526 C7.70150033,64.4624351 11.7461293,78.570533 23.8917818,95.5688325 C30.3042825,104.54337 38.7920285,114.057451 48.8493462,123.854646 C57.1695651,131.959671 66.0856563,139.800551 75.0018508,147.078446 C78.1225255,149.625714 81.0201289,151.920519 83.6202325,153.925581 C84.5299783,154.627129 85.3374559,155.242277 86.0333633,155.766367 C86.0518494,155.780289 86.0700798,155.794014 86.0880537,155.807541 Z"></path>
                    </g>
                </g>
                <g transform="translate(274.000000, 46.500000) scale(-1, 1) rotate(-90.000000) translate(-274.000000, -46.500000) translate(233.500000, -95.500000)">
                    <g id="Rectangle-1">
                        <use fill="#7E1421" fill-rule="evenodd" xlink:href="#path-3"></use>
                        <path stroke="#7E1421" stroke-width="1" d="M79.3905996,281.717572 C79.3905996,281.171185 79.3905996,280.429485 79.3905996,279.373834 L79.3905996,268.871791 L79.3905996,265.856004 C79.3905997,218.434949 79.3905997,218.434949 79.3905998,163.472805 L79.3906001,5.3221786 C79.3906001,3.26757848 79.3906001,2.72159507 79.3906001,2.34372722 C79.3897092,2.34355003 79.3888169,2.3433726 79.3879233,2.34319494 C79.0583265,2.2776642 78.6708982,2.20454658 78.2285407,2.1257313 C76.9626251,1.90018189 75.5117504,1.67449458 73.8991469,1.46377541 C62.8573182,0.0209377168 51.0796859,0.0186195903 40.0519611,2.41410378 C16.1743914,7.60087998 1.52924442,22.7942898 0.55211758,51.0455321 C-0.223865176,73.4811833 8.66078154,109.03975 24.9839922,154.09103 C29.6265318,166.904217 34.7994886,180.276237 40.4112495,194.05963 C49.1456189,215.512657 58.5042195,236.911412 67.8628155,257.251835 C71.1382966,264.370923 74.1797599,270.849099 76.9091841,276.56089 C77.8415369,278.512 78.6716984,280.235755 79.3905996,281.717572 Z"></path>
                    </g>
                    <g id="Rectangle-9">
                        <use fill="#7E1421" fill-rule="evenodd" xlink:href="#path-4"></use>
                        <path stroke="#FFFFFF" stroke-width="1" d="M79.5229907,143.918295 L79.5229893,32.7665507 L71.8252444,32.7665507 C38.1012701,32.7665507 18.9375897,38.8774636 12.5434749,50.1153618 C7.15998027,59.5770568 10.8941201,72.6021354 22.1111638,88.3008118 C28.035998,96.5928412 35.8787762,105.383966 45.1720659,114.436894 C52.8605824,121.926554 61.0998495,129.17223 69.3392199,135.897663 C72.2230061,138.25157 74.9006417,140.372167 77.3033383,142.225 C78.1395627,142.869852 78.8822675,143.435696 79.5229907,143.918295 Z"></path>
                    </g>
                </g>
            </g>
        </g>
    </g>
</svg>