<?xml version="1.0" encoding="UTF-8" standalone="no"?>
<svg width="122px" height="25px" viewBox="0 0 122 25" version="1.1" xmlns="http://www.w3.org/2000/svg" xmlns:xlink="http://www.w3.org/1999/xlink">
    <!-- Generator: Sketch 45.2 (43514) - http://www.bohemiancoding.com/sketch -->
    <title>icon-contact</title>
    <desc>Created with Sketch.</desc>
    <defs></defs>
    <g id="Page-1" stroke="none" stroke-width="1" fill="none" fill-rule="evenodd">
        <g id="iPhone-7" transform="translate(-138.000000, -585.000000)">
            <g id="icon-contact" transform="translate(139.000000, 585.000000)">
                <path d="M14.0273781,5.125 C13.5273756,4.4749967 12.8940486,3.97500175 12.1273781,3.625 C11.3607076,3.27499825 10.5690489,3.1 9.7523781,3.1 C8.7523731,3.1 7.8482155,3.28749813 7.0398781,3.6625 C6.2315408,4.0375019 5.539881,4.5499968 4.9648781,5.2 C4.3898753,5.8500032 3.9440464,6.6124956 3.6273781,7.4875 C3.3107099,8.3625044 3.1523781,9.299995 3.1523781,10.3 C3.1523781,11.233338 3.3023766,12.1166625 3.6023781,12.95 C3.9023796,13.7833375 4.3357086,14.5166635 4.9023781,15.15 C5.4690476,15.7833365 6.1607074,16.2833315 6.9773781,16.65 C7.7940489,17.0166685 8.7190396,17.2 9.7523781,17.2 C10.7690499,17.2 11.6607076,16.9916687 12.4273781,16.575 C13.1940486,16.1583312 13.8440421,15.5750038 14.3773781,14.825 L16.4023781,16.35 C16.2690441,16.5333342 16.0357131,16.7958316 15.7023781,17.1375 C15.3690431,17.4791684 14.9273809,17.8208316 14.3773781,18.1625 C13.8273754,18.5041684 13.164882,18.8041654 12.3898781,19.0625 C11.6148743,19.3208346 10.7190499,19.45 9.7023781,19.45 C8.3023711,19.45 7.0398838,19.183336 5.9148781,18.65 C4.7898725,18.116664 3.8315488,17.416671 3.0398781,16.55 C2.2482075,15.683329 1.6440469,14.7041721 1.2273781,13.6125 C0.81070939,12.5208279 0.60237814,11.4166723 0.60237814,10.3 C0.60237814,8.9333265 0.82737589,7.6708391 1.2773781,6.5125 C1.7273804,5.3541609 2.3565408,4.3541709 3.1648781,3.5125 C3.9732155,2.67082912 4.9440391,2.016669 6.0773781,1.55 C7.2107171,1.083331 8.4607046,0.85 9.8273781,0.85 C10.9940506,0.85 12.1398725,1.07499775 13.2648781,1.525 C14.3898838,1.97500225 15.3107079,2.666662 16.0273781,3.6 L14.0273781,5.125 Z M20.5523781,13.075 C20.5523781,13.675003 20.6440439,14.2291641 20.8273781,14.7375 C21.0107124,15.2458359 21.2690431,15.6791649 21.6023781,16.0375 C21.9357131,16.3958351 22.3440424,16.6791656 22.8273781,16.8875 C23.3107139,17.0958344 23.8523751,17.2 24.4523781,17.2 C25.0523811,17.2 25.5940424,17.0958344 26.0773781,16.8875 C26.5607139,16.6791656 26.9690431,16.3958351 27.3023781,16.0375 C27.6357131,15.6791649 27.8940439,15.2458359 28.0773781,14.7375 C28.2607124,14.2291641 28.3523781,13.675003 28.3523781,13.075 C28.3523781,12.474997 28.2607124,11.9208359 28.0773781,11.4125 C27.8940439,10.9041641 27.6357131,10.4708351 27.3023781,10.1125 C26.9690431,9.7541649 26.5607139,9.4708344 26.0773781,9.2625 C25.5940424,9.0541656 25.0523811,8.95 24.4523781,8.95 C23.8523751,8.95 23.3107139,9.0541656 22.8273781,9.2625 C22.3440424,9.4708344 21.9357131,9.7541649 21.6023781,10.1125 C21.2690431,10.4708351 21.0107124,10.9041641 20.8273781,11.4125 C20.6440439,11.9208359 20.5523781,12.474997 20.5523781,13.075 Z M18.1523781,13.075 C18.1523781,12.208329 18.3148765,11.4000037 18.6398781,10.65 C18.9648798,9.8999962 19.4107086,9.2416695 19.9773781,8.675 C20.5440476,8.1083305 21.2107076,7.6625016 21.9773781,7.3375 C22.7440486,7.0124984 23.5690404,6.85 24.4523781,6.85 C25.3357159,6.85 26.1607076,7.0124984 26.9273781,7.3375 C27.6940486,7.6625016 28.3607086,8.1083305 28.9273781,8.675 C29.4940476,9.2416695 29.9398765,9.8999962 30.2648781,10.65 C30.5898798,11.4000037 30.7523781,12.208329 30.7523781,13.075 C30.7523781,13.941671 30.5898798,14.7541629 30.2648781,15.5125 C29.9398765,16.2708371 29.4940476,16.9291639 28.9273781,17.4875 C28.3607086,18.0458361 27.6940486,18.4874984 26.9273781,18.8125 C26.1607076,19.1375016 25.3357159,19.3 24.4523781,19.3 C23.5690404,19.3 22.7440486,19.1375016 21.9773781,18.8125 C21.2107076,18.4874984 20.5440476,18.0458361 19.9773781,17.4875 C19.4107086,16.9291639 18.9648798,16.2708371 18.6398781,15.5125 C18.3148765,14.7541629 18.1523781,13.941671 18.1523781,13.075 Z M33.5773781,7.15 L35.8273781,7.15 L35.8273781,8.975 L35.8773781,8.975 C36.1607129,8.3416635 36.6523746,7.8291686 37.3523781,7.4375 C38.0523816,7.0458314 38.8607069,6.85 39.7773781,6.85 C40.3440476,6.85 40.8898755,6.9374991 41.4148781,7.1125 C41.9398808,7.2875009 42.3982095,7.5583315 42.7898781,7.925 C43.1815468,8.2916685 43.4940436,8.7624971 43.7273781,9.3375 C43.9607126,9.9125029 44.0773781,10.5916628 44.0773781,11.375 L44.0773781,19 L41.8273781,19 L41.8273781,12 C41.8273781,11.4499973 41.7523789,10.9791686 41.6023781,10.5875 C41.4523774,10.1958314 41.2523794,9.8791679 41.0023781,9.6375 C40.7523769,9.3958321 40.4648798,9.2208339 40.1398781,9.1125 C39.8148765,9.0041661 39.4773799,8.95 39.1273781,8.95 C38.6607091,8.95 38.2273801,9.0249992 37.8273781,9.175 C37.4273761,9.3250007 37.0773796,9.5624984 36.7773781,9.8875 C36.4773766,10.2125016 36.2440456,10.6249975 36.0773781,11.125 C35.9107106,11.6250025 35.8273781,12.2166632 35.8273781,12.9 L35.8273781,19 L33.5773781,19 L33.5773781,7.15 Z M53.8273781,9.1 L50.6023781,9.1 L50.6023781,14.475 C50.6023781,14.808335 50.6107114,15.1374984 50.6273781,15.4625 C50.6440449,15.7875016 50.7065443,16.0791654 50.8148781,16.3375 C50.923212,16.5958346 51.089877,16.8041659 51.3148781,16.9625 C51.5398793,17.1208341 51.8690426,17.2 52.3023781,17.2 C52.5690461,17.2 52.8440434,17.1750003 53.1273781,17.125 C53.4107129,17.0749997 53.6690436,16.983334 53.9023781,16.85 L53.9023781,18.9 C53.6357101,19.0500007 53.2898803,19.1541664 52.8648781,19.2125 C52.439876,19.2708336 52.1107126,19.3 51.8773781,19.3 C51.0107071,19.3 50.3398805,19.1791679 49.8648781,18.9375 C49.3898758,18.6958321 49.0398793,18.3833352 48.8148781,18 C48.589877,17.6166647 48.456545,17.1875024 48.4148781,16.7125 C48.3732113,16.2374976 48.3523781,15.7583358 48.3523781,15.275 L48.3523781,9.1 L45.7523781,9.1 L45.7523781,7.15 L48.3523781,7.15 L48.3523781,3.825 L50.6023781,3.825 L50.6023781,7.15 L53.8273781,7.15 L53.8273781,9.1 Z M56.7773781,8.6 C57.4107146,8.0166637 58.1440406,7.5791681 58.9773781,7.2875 C59.8107156,6.9958319 60.6440406,6.85 61.4773781,6.85 C62.3440491,6.85 63.089875,6.9583322 63.7148781,7.175 C64.3398813,7.3916677 64.8523761,7.6833315 65.2523781,8.05 C65.6523801,8.4166685 65.9482105,8.8374976 66.1398781,9.3125 C66.3315458,9.7875024 66.4273781,10.2833307 66.4273781,10.8 L66.4273781,16.85 C66.4273781,17.2666687 66.4357114,17.6499982 66.4523781,18 C66.4690449,18.3500017 66.4940446,18.6833317 66.5273781,19 L64.5273781,19 C64.4773779,18.399997 64.4523781,17.800003 64.4523781,17.2 L64.4023781,17.2 C63.9023756,17.9666705 63.3107149,18.5083317 62.6273781,18.825 C61.9440414,19.1416682 61.1523826,19.3 60.2523781,19.3 C59.7023754,19.3 59.1773806,19.2250007 58.6773781,19.075 C58.1773756,18.9249992 57.73988,18.7000015 57.3648781,18.4 C56.9898763,18.0999985 56.6940459,17.7291689 56.4773781,17.2875 C56.2607104,16.8458311 56.1523781,16.3333362 56.1523781,15.75 C56.1523781,14.9833295 56.3232098,14.3416692 56.6648781,13.825 C57.0065465,13.3083307 57.4732085,12.8875016 58.0648781,12.5625 C58.6565478,12.2374984 59.3482075,12.0041674 60.1398781,11.8625 C60.9315488,11.7208326 61.7773736,11.65 62.6773781,11.65 L64.3273781,11.65 L64.3273781,11.15 C64.3273781,10.8499985 64.2690454,10.5500015 64.1523781,10.25 C64.0357109,9.9499985 63.8607126,9.6791679 63.6273781,9.4375 C63.3940436,9.1958321 63.1023799,9.0041674 62.7523781,8.8625 C62.4023764,8.7208326 61.9857139,8.65 61.5023781,8.65 C61.0690426,8.65 60.6898798,8.6916662 60.3648781,8.775 C60.0398765,8.8583337 59.7440461,8.9624994 59.4773781,9.0875 C59.2107101,9.2125006 58.9690459,9.3583325 58.7523781,9.525 C58.5357104,9.6916675 58.3273791,9.8499992 58.1273781,10 L56.7773781,8.6 Z M63.1273781,13.3 C62.5940421,13.3 62.0482143,13.3291664 61.4898781,13.3875 C60.931542,13.4458336 60.4232138,13.5583325 59.9648781,13.725 C59.5065425,13.8916675 59.1315463,14.1249985 58.8398781,14.425 C58.54821,14.7250015 58.4023781,15.108331 58.4023781,15.575 C58.4023781,16.2583367 58.6315425,16.7499985 59.0898781,17.05 C59.5482138,17.3500015 60.1690409,17.5 60.9523781,17.5 C61.5690479,17.5 62.0940426,17.3958344 62.5273781,17.1875 C62.9607136,16.9791656 63.3107101,16.708335 63.5773781,16.375 C63.8440461,16.041665 64.0357109,15.6708354 64.1523781,15.2625 C64.2690454,14.8541646 64.3273781,14.450002 64.3273781,14.05 L64.3273781,13.3 L63.1273781,13.3 Z M78.1773781,10.3 C77.7607094,9.8666645 77.3232138,9.5375011 76.8648781,9.3125 C76.4065425,9.0874989 75.8607146,8.975 75.2273781,8.975 C74.6107084,8.975 74.0732138,9.0874989 73.6148781,9.3125 C73.1565425,9.5375011 72.773213,9.8458314 72.4648781,10.2375 C72.1565433,10.6291686 71.9232123,11.0791641 71.7648781,11.5875 C71.606544,12.0958359 71.5273781,12.6249972 71.5273781,13.175 C71.5273781,13.7250028 71.6190439,14.2458309 71.8023781,14.7375 C71.9857124,15.2291691 72.2440431,15.6583315 72.5773781,16.025 C72.9107131,16.3916685 73.3107091,16.6791656 73.7773781,16.8875 C74.2440471,17.0958344 74.7690419,17.2 75.3523781,17.2 C75.9857146,17.2 76.5273759,17.0875011 76.9773781,16.8625 C77.4273804,16.6374989 77.8440429,16.3083355 78.2273781,15.875 L79.8273781,17.475 C79.2440419,18.1250032 78.564882,18.5916652 77.7898781,18.875 C77.0148743,19.1583348 76.1940491,19.3 75.3273781,19.3 C74.4107069,19.3 73.5732153,19.1500015 72.8148781,18.85 C72.056541,18.5499985 71.4023809,18.1291694 70.8523781,17.5875 C70.3023754,17.0458306 69.8773796,16.3958371 69.5773781,15.6375 C69.2773766,14.8791629 69.1273781,14.0416713 69.1273781,13.125 C69.1273781,12.2083287 69.2773766,11.3666705 69.5773781,10.6 C69.8773796,9.8333295 70.2982088,9.1750027 70.8398781,8.625 C71.3815475,8.0749972 72.031541,7.6458349 72.7898781,7.3375 C73.5482153,7.0291651 74.3940401,6.875 75.3273781,6.875 C76.1940491,6.875 77.0232075,7.0291651 77.8148781,7.3375 C78.6065488,7.6458349 79.2940419,8.1166635 79.8773781,8.75 L78.1773781,10.3 Z M88.1023781,9.1 L84.8773781,9.1 L84.8773781,14.475 C84.8773781,14.808335 84.8857114,15.1374984 84.9023781,15.4625 C84.9190449,15.7875016 84.9815443,16.0791654 85.0898781,16.3375 C85.198212,16.5958346 85.364877,16.8041659 85.5898781,16.9625 C85.8148793,17.1208341 86.1440426,17.2 86.5773781,17.2 C86.8440461,17.2 87.1190434,17.1750003 87.4023781,17.125 C87.6857129,17.0749997 87.9440436,16.983334 88.1773781,16.85 L88.1773781,18.9 C87.9107101,19.0500007 87.5648803,19.1541664 87.1398781,19.2125 C86.714876,19.2708336 86.3857126,19.3 86.1523781,19.3 C85.2857071,19.3 84.6148805,19.1791679 84.1398781,18.9375 C83.6648758,18.6958321 83.3148793,18.3833352 83.0898781,18 C82.864877,17.6166647 82.731545,17.1875024 82.6898781,16.7125 C82.6482113,16.2374976 82.6273781,15.7583358 82.6273781,15.275 L82.6273781,9.1 L80.0273781,9.1 L80.0273781,7.15 L82.6273781,7.15 L82.6273781,3.825 L84.8773781,3.825 L84.8773781,7.15 L88.1023781,7.15 L88.1023781,9.1 Z M108.452378,19 L106.202378,19 L106.202378,17.175 L106.152378,17.175 C105.869043,17.8083365 105.377382,18.3208314 104.677378,18.7125 C103.977375,19.1041686 103.169049,19.3 102.252378,19.3 C101.669042,19.3 101.119047,19.2125009 100.602378,19.0375 C100.085709,18.8624991 99.631547,18.5916685 99.239878,18.225 C98.84821,17.8583315 98.535713,17.3875029 98.302378,16.8125 C98.069044,16.2374971 97.952378,15.5583373 97.952378,14.775 L97.952378,7.15 L100.202378,7.15 L100.202378,14.15 C100.202378,14.7000027 100.277377,15.1708314 100.427378,15.5625 C100.577379,15.9541686 100.777377,16.2708321 101.027378,16.5125 C101.277379,16.7541679 101.564877,16.9291661 101.889878,17.0375 C102.21488,17.1458339 102.552376,17.2 102.902378,17.2 C103.369047,17.2 103.802376,17.1250007 104.202378,16.975 C104.60238,16.8249993 104.952377,16.5875016 105.252378,16.2625 C105.55238,15.9374984 105.785711,15.5250025 105.952378,15.025 C106.119046,14.5249975 106.202378,13.9333367 106.202378,13.25 L106.202378,7.15 L108.452378,7.15 L108.452378,19 Z M118.152378,10.125 C117.88571,9.791665 117.556547,9.5125011 117.164878,9.2875 C116.77321,9.0624989 116.294048,8.95 115.727378,8.95 C115.194042,8.95 114.731547,9.0624989 114.339878,9.2875 C113.94821,9.5125011 113.752378,9.8416645 113.752378,10.275 C113.752378,10.6250017 113.864877,10.9083323 114.089878,11.125 C114.314879,11.3416677 114.581543,11.516666 114.889878,11.65 C115.198213,11.783334 115.527376,11.883333 115.877378,11.95 C116.22738,12.016667 116.527377,12.0749997 116.777378,12.125 C117.260714,12.2416672 117.714876,12.3833325 118.139878,12.55 C118.56488,12.7166675 118.931543,12.933332 119.239878,13.2 C119.548213,13.466668 119.789877,13.7916648 119.964878,14.175 C120.139879,14.5583352 120.227378,15.0249972 120.227378,15.575 C120.227378,16.24167 120.085713,16.8124976 119.802378,17.2875 C119.519043,17.7625024 119.15238,18.1499985 118.702378,18.45 C118.252376,18.7500015 117.739881,18.966666 117.164878,19.1 C116.589875,19.233334 116.010714,19.3 115.427378,19.3 C114.44404,19.3 113.581549,19.1500015 112.839878,18.85 C112.098208,18.5499985 111.435714,18.000004 110.852378,17.2 L112.552378,15.8 C112.919047,16.1666685 113.327376,16.4916652 113.777378,16.775 C114.22738,17.0583348 114.777375,17.2 115.427378,17.2 C115.710713,17.2 115.99821,17.1708336 116.289878,17.1125 C116.581546,17.0541664 116.839877,16.9625006 117.064878,16.8375 C117.289879,16.7124994 117.473211,16.5541676 117.614878,16.3625 C117.756546,16.1708324 117.827378,15.9500012 117.827378,15.7 C117.827378,15.366665 117.723213,15.0916677 117.514878,14.875 C117.306544,14.6583322 117.056546,14.4875006 116.764878,14.3625 C116.47321,14.2374994 116.16488,14.1375004 115.839878,14.0625 C115.514877,13.9874996 115.227379,13.9250003 114.977378,13.875 C114.494042,13.7583327 114.035714,13.6250007 113.602378,13.475 C113.169043,13.3249992 112.785713,13.1250013 112.452378,12.875 C112.119043,12.6249987 111.852379,12.3083352 111.652378,11.925 C111.452377,11.5416648 111.352378,11.0666695 111.352378,10.5 C111.352378,9.8833302 111.481544,9.3458356 111.739878,8.8875 C111.998213,8.4291644 112.339876,8.0500015 112.764878,7.75 C113.18988,7.4499985 113.673209,7.2250007 114.214878,7.075 C114.756548,6.9249992 115.302375,6.85 115.852378,6.85 C116.652382,6.85 117.419041,6.9999985 118.152378,7.3 C118.885715,7.6000015 119.469043,8.0999965 119.902378,8.8 L118.152378,10.125 Z" id="Contact-us" fill="#FFFFFF" fill-rule="nonzero"></path>
                <path d="M0.5,23.3 L119.5,23.3" id="Line-2" stroke="#FFFFFF" stroke-width="1.5" stroke-linecap="square"></path>
            </g>
        </g>
    </g>
</svg>