<?xml version="1.0" encoding="utf-8"?>
<!-- Generator: Adobe Illustrator 21.1.0, SVG Export Plug-In . SVG Version: 6.00 Build 0)  -->
<svg version="1.1" id="Layer_1" xmlns="http://www.w3.org/2000/svg" xmlns:xlink="http://www.w3.org/1999/xlink" x="0px" y="0px"
	 viewBox="0 0 122 25" style="enable-background:new 0 0 122 25;" xml:space="preserve">
<style type="text/css">
	.st0{fill:#FFFFFF;}
	.st1{fill:none;stroke:#FFFFFF;stroke-width:1.5;stroke-linecap:square;}
</style>
<title>icon-contact</title>
<desc>Created with Sketch.</desc>
<g id="Page-1">
	<g id="icon-contact" transform="translate(139.000000, 585.000000)">
		<path id="Contact-us" class="st0" d="M-124-579.9c-0.5-0.7-1.1-1.2-1.9-1.5s-1.6-0.5-2.4-0.5c-1,0-1.9,0.2-2.7,0.6
			c-0.8,0.4-1.5,0.9-2.1,1.5c-0.6,0.6-1,1.4-1.3,2.3s-0.5,1.8-0.5,2.8c0,0.9,0.2,1.8,0.4,2.7c0.3,0.8,0.7,1.6,1.3,2.2
			c0.6,0.6,1.3,1.1,2.1,1.5c0.8,0.4,1.7,0.5,2.8,0.5c1,0,1.9-0.2,2.7-0.6s1.4-1,2-1.8l2,1.5c-0.1,0.2-0.4,0.4-0.7,0.8
			s-0.8,0.7-1.3,1s-1.2,0.6-2,0.9s-1.7,0.4-2.7,0.4c-1.4,0-2.7-0.3-3.8-0.8c-1.1-0.5-2.1-1.2-2.9-2.1c-0.8-0.9-1.4-1.8-1.8-2.9
			c-0.4-1.1-0.6-2.2-0.6-3.3c0-1.4,0.2-2.6,0.7-3.8c0.5-1.2,1.1-2.2,1.9-3c0.8-0.8,1.8-1.5,2.9-2c1.1-0.5,2.4-0.7,3.8-0.7
			c1.2,0,2.3,0.2,3.4,0.7c1.1,0.4,2,1.1,2.8,2.1L-124-579.9z M-117.4-571.9c0,0.6,0.1,1.2,0.3,1.7c0.2,0.5,0.4,0.9,0.8,1.3
			s0.7,0.6,1.2,0.9c0.5,0.2,1,0.3,1.6,0.3s1.1-0.1,1.6-0.3c0.5-0.2,0.9-0.5,1.2-0.9s0.6-0.8,0.8-1.3c0.2-0.5,0.3-1.1,0.3-1.7
			c0-0.6-0.1-1.2-0.3-1.7c-0.2-0.5-0.4-0.9-0.8-1.3s-0.7-0.6-1.2-0.8c-0.5-0.2-1-0.3-1.6-0.3s-1.1,0.1-1.6,0.3
			c-0.5,0.2-0.9,0.5-1.2,0.8s-0.6,0.8-0.8,1.3C-117.4-573.1-117.4-572.5-117.4-571.9z M-119.8-571.9c0-0.9,0.2-1.7,0.5-2.4
			c0.3-0.8,0.8-1.4,1.3-2c0.6-0.6,1.2-1,2-1.3c0.8-0.3,1.6-0.5,2.5-0.5s1.7,0.2,2.5,0.5c0.8,0.3,1.4,0.8,2,1.3c0.6,0.6,1,1.2,1.3,2
			c0.3,0.8,0.5,1.6,0.5,2.4c0,0.9-0.2,1.7-0.5,2.4c-0.3,0.8-0.8,1.4-1.3,2c-0.6,0.6-1.2,1-2,1.3s-1.6,0.5-2.5,0.5s-1.7-0.2-2.5-0.5
			s-1.4-0.8-2-1.3s-1-1.2-1.3-2C-119.7-570.2-119.8-571.1-119.8-571.9z M-104.4-577.8h2.2v1.8h0.1c0.3-0.6,0.8-1.1,1.5-1.5
			s1.5-0.6,2.4-0.6c0.6,0,1.1,0.1,1.6,0.3s1,0.4,1.4,0.8c0.4,0.4,0.7,0.8,0.9,1.4c0.2,0.6,0.3,1.3,0.3,2v7.6h-2.2v-7
			c0-0.5-0.1-1-0.2-1.4c-0.2-0.4-0.3-0.7-0.6-1c-0.2-0.2-0.5-0.4-0.9-0.5s-0.7-0.2-1-0.2c-0.5,0-0.9,0.1-1.3,0.2
			c-0.4,0.2-0.8,0.4-1.1,0.7s-0.5,0.7-0.7,1.2s-0.2,1.1-0.2,1.8v6.1h-2.2V-577.8z M-84.2-575.9h-3.2v5.4c0,0.3,0,0.7,0,1
			c0,0.3,0.1,0.6,0.2,0.9c0.1,0.3,0.3,0.5,0.5,0.6c0.2,0.2,0.6,0.2,1,0.2c0.3,0,0.5,0,0.8-0.1c0.3,0,0.5-0.1,0.8-0.3v2.1
			c-0.3,0.1-0.6,0.3-1,0.3c-0.4,0.1-0.8,0.1-1,0.1c-0.9,0-1.5-0.1-2-0.4c-0.5-0.2-0.8-0.6-1.1-0.9c-0.2-0.4-0.4-0.8-0.4-1.3
			c0-0.5-0.1-1-0.1-1.4v-6.2h-2.6v-1.9h2.6v-3.3h2.2v3.3h3.2V-575.9z M-81.2-576.4c0.6-0.6,1.4-1,2.2-1.3c0.8-0.3,1.7-0.4,2.5-0.4
			c0.9,0,1.6,0.1,2.2,0.3c0.6,0.2,1.1,0.5,1.5,0.9c0.4,0.4,0.7,0.8,0.9,1.3s0.3,1,0.3,1.5v6c0,0.4,0,0.8,0,1.2c0,0.3,0,0.7,0.1,1h-2
			c-0.1-0.6-0.1-1.2-0.1-1.8h0c-0.5,0.8-1.1,1.3-1.8,1.6c-0.7,0.3-1.5,0.5-2.4,0.5c-0.6,0-1.1-0.1-1.6-0.2c-0.5-0.2-0.9-0.4-1.3-0.7
			c-0.4-0.3-0.7-0.7-0.9-1.1c-0.2-0.4-0.3-1-0.3-1.5c0-0.8,0.2-1.4,0.5-1.9s0.8-0.9,1.4-1.3c0.6-0.3,1.3-0.6,2.1-0.7
			s1.6-0.2,2.5-0.2h1.6v-0.5c0-0.3-0.1-0.6-0.2-0.9c-0.1-0.3-0.3-0.6-0.5-0.8s-0.5-0.4-0.9-0.6c-0.4-0.1-0.8-0.2-1.2-0.2
			c-0.4,0-0.8,0-1.1,0.1c-0.3,0.1-0.6,0.2-0.9,0.3s-0.5,0.3-0.7,0.4c-0.2,0.2-0.4,0.3-0.6,0.5L-81.2-576.4z M-74.9-571.7
			c-0.5,0-1.1,0-1.6,0.1c-0.6,0.1-1.1,0.2-1.5,0.3c-0.5,0.2-0.8,0.4-1.1,0.7c-0.3,0.3-0.4,0.7-0.4,1.2c0,0.7,0.2,1.2,0.7,1.5
			c0.5,0.3,1.1,0.5,1.9,0.5c0.6,0,1.1-0.1,1.6-0.3s0.8-0.5,1.1-0.8c0.3-0.3,0.5-0.7,0.6-1.1c0.1-0.4,0.2-0.8,0.2-1.2v-0.8H-74.9z
			 M-59.8-574.7c-0.4-0.4-0.9-0.8-1.3-1s-1-0.3-1.6-0.3c-0.6,0-1.2,0.1-1.6,0.3s-0.8,0.5-1.1,0.9c-0.3,0.4-0.5,0.8-0.7,1.4
			c-0.2,0.5-0.2,1-0.2,1.6s0.1,1.1,0.3,1.6c0.2,0.5,0.4,0.9,0.8,1.3c0.3,0.4,0.7,0.7,1.2,0.9c0.5,0.2,1,0.3,1.6,0.3
			c0.6,0,1.2-0.1,1.6-0.3c0.5-0.2,0.9-0.6,1.2-1l1.6,1.6c-0.6,0.7-1.3,1.1-2,1.4s-1.6,0.4-2.5,0.4c-0.9,0-1.8-0.1-2.5-0.5
			c-0.8-0.3-1.4-0.7-2-1.3c-0.6-0.5-1-1.2-1.3-2c-0.3-0.8-0.4-1.6-0.4-2.5s0.1-1.8,0.4-2.5c0.3-0.8,0.7-1.4,1.3-2
			c0.5-0.5,1.2-1,1.9-1.3c0.8-0.3,1.6-0.5,2.5-0.5c0.9,0,1.7,0.2,2.5,0.5c0.8,0.3,1.5,0.8,2.1,1.4L-59.8-574.7z M-49.9-575.9h-3.2
			v5.4c0,0.3,0,0.7,0,1c0,0.3,0.1,0.6,0.2,0.9c0.1,0.3,0.3,0.5,0.5,0.6c0.2,0.2,0.6,0.2,1,0.2c0.3,0,0.5,0,0.8-0.1
			c0.3,0,0.5-0.1,0.8-0.3v2.1c-0.3,0.1-0.6,0.3-1,0.3c-0.4,0.1-0.8,0.1-1,0.1c-0.9,0-1.5-0.1-2-0.4c-0.5-0.2-0.8-0.6-1-0.9
			c-0.2-0.4-0.4-0.8-0.4-1.3c0-0.5-0.1-1-0.1-1.4v-6.2H-58v-1.9h2.6v-3.3h2.2v3.3h3.2V-575.9z"/>
		<path id="Line-2" class="st1" d="M-137.5-561.7h87.7"/>
	</g>
</g>
</svg>
