<?xml version="1.0" encoding="UTF-8"?>
<svg width="170px" height="20px" viewBox="0 0 170 20" version="1.1" xmlns="http://www.w3.org/2000/svg" xmlns:xlink="http://www.w3.org/1999/xlink">
    <!-- Generator: Sketch 45.2 (43514) - http://www.bohemiancoding.com/sketch -->
    <title>CHAPOROYAL</title>
    <desc>Created with Sketch.</desc>
    <defs></defs>
    <g id="Page-1" stroke="none" stroke-width="1" fill="none" fill-rule="evenodd">
        <g id="iPhone-7" transform="translate(-17.000000, -47.000000)" fill="#FFFFFF">
            <path d="M30.125,52.45 C29.4749968,51.7499965 28.8458364,51.2833345 28.2375,51.05 C27.6291636,50.8166655 27.0166697,50.7 26.4,50.7 C25.4833287,50.7 24.6541704,50.8624984 23.9125,51.1875 C23.1708296,51.5125016 22.533336,51.9624971 22,52.5375 C21.466664,53.1125029 21.0541681,53.7833295 20.7625,54.55 C20.4708319,55.3166705 20.325,56.1416622 20.325,57.025 C20.325,57.9750047 20.4708319,58.849996 20.7625,59.65 C21.0541681,60.450004 21.466664,61.1416637 22,61.725 C22.533336,62.3083362 23.1708296,62.766665 23.9125,63.1 C24.6541704,63.433335 25.4833287,63.6 26.4,63.6 C27.1166702,63.6 27.8124966,63.4291684 28.4875,63.0875 C29.1625034,62.7458316 29.7916638,62.2000038 30.375,61.45 L32.975,63.3 C32.174996,64.4000055 31.2000057,65.1999975 30.05,65.7 C28.8999943,66.2000025 27.6750065,66.45 26.375,66.45 C25.0083265,66.45 23.7541724,66.2291689 22.6125,65.7875 C21.4708276,65.3458311 20.4875041,64.7208374 19.6625,63.9125 C18.8374959,63.1041626 18.191669,62.133339 17.725,61 C17.258331,59.866661 17.025,58.6083402 17.025,57.225 C17.025,55.8083263 17.258331,54.5208391 17.725,53.3625 C18.191669,52.2041609 18.8374959,51.2166707 19.6625,50.4 C20.4875041,49.5833293 21.4708276,48.9541689 22.6125,48.5125 C23.7541724,48.0708311 25.0083265,47.85 26.375,47.85 C27.575006,47.85 28.6874949,48.0624979 29.7125,48.4875 C30.7375051,48.9125021 31.6916623,49.6333282 32.575,50.65 L30.125,52.45 Z M35.1,48.3 L38.25,48.3 L38.25,55.35 L46.525,55.35 L46.525,48.3 L49.675,48.3 L49.675,66 L46.525,66 L46.525,58.2 L38.25,58.2 L38.25,66 L35.1,66 L35.1,48.3 Z M59.35,48.3 L62.075,48.3 L69.7,66 L66.1,66 L64.45,61.95 L56.775,61.95 L55.175,66 L51.65,66 L59.35,48.3 Z M63.35,59.25 L60.625,52.05 L57.85,59.25 L63.35,59.25 Z M71.675,48.3 L77.625,48.3 C78.4750043,48.3 79.2958294,48.3833325 80.0875,48.55 C80.8791706,48.7166675 81.574997,48.9958314 82.175,49.3875 C82.775003,49.7791686 83.2541649,50.3041634 83.6125,50.9625 C83.9708351,51.6208366 84.15,52.4416617 84.15,53.425 C84.15,54.5416723 83.9583353,55.4416633 83.575,56.125 C83.1916648,56.8083367 82.6750033,57.3374981 82.025,57.7125 C81.3749968,58.0875019 80.6208376,58.341666 79.7625,58.475 C78.9041624,58.608334 78.008338,58.675 77.075,58.675 L74.825,58.675 L74.825,66 L71.675,66 L71.675,48.3 Z M76.725,55.975 C77.1750023,55.975 77.6416643,55.9583335 78.125,55.925 C78.6083358,55.8916665 79.0541646,55.7916675 79.4625,55.625 C79.8708354,55.4583325 80.2041654,55.208335 80.4625,54.875 C80.7208346,54.541665 80.85,54.075003 80.85,53.475 C80.85,52.9249973 80.7333345,52.4875016 80.5,52.1625 C80.2666655,51.8374984 79.9666685,51.5875009 79.6,51.4125 C79.2333315,51.2374991 78.8250023,51.1250002 78.375,51.075 C77.9249978,51.0249997 77.4916688,51 77.075,51 L74.825,51 L74.825,55.975 L76.725,55.975 Z M86,57.225 C86,55.8083263 86.233331,54.5208391 86.7,53.3625 C87.166669,52.2041609 87.8124959,51.2166707 88.6375,50.4 C89.4625041,49.5833293 90.4458276,48.9541689 91.5875,48.5125 C92.7291724,48.0708311 93.9833265,47.85 95.35,47.85 C96.7333403,47.8333332 97.9999943,48.0374979 99.15,48.4625 C100.300006,48.8875021 101.291663,49.5083292 102.125,50.325 C102.958338,51.1416707 103.608331,52.1249943 104.075,53.275 C104.541669,54.4250057 104.775,55.7083262 104.775,57.125 C104.775,58.5083403 104.541669,59.766661 104.075,60.9 C103.608331,62.033339 102.958338,63.0083293 102.125,63.825 C101.291663,64.6416708 100.300006,65.2791644 99.15,65.7375 C97.9999943,66.1958356 96.7333403,66.4333333 95.35,66.45 C93.9833265,66.45 92.7291724,66.2291689 91.5875,65.7875 C90.4458276,65.3458311 89.4625041,64.7208374 88.6375,63.9125 C87.8124959,63.1041626 87.166669,62.133339 86.7,61 C86.233331,59.866661 86,58.6083402 86,57.225 Z M89.3,57.025 C89.3,57.9750047 89.4458319,58.849996 89.7375,59.65 C90.0291681,60.450004 90.441664,61.1416637 90.975,61.725 C91.508336,62.3083362 92.1458296,62.766665 92.8875,63.1 C93.6291704,63.433335 94.4583288,63.6 95.375,63.6 C96.2916713,63.6 97.1249963,63.433335 97.875,63.1 C98.6250038,62.766665 99.266664,62.3083362 99.8,61.725 C100.333336,61.1416637 100.745832,60.450004 101.0375,59.65 C101.329168,58.849996 101.475,57.9750047 101.475,57.025 C101.475,56.1416622 101.329168,55.3166705 101.0375,54.55 C100.745832,53.7833295 100.333336,53.1125029 99.8,52.5375 C99.266664,51.9624971 98.6250038,51.5125016 97.875,51.1875 C97.1249963,50.8624984 96.2916713,50.7 95.375,50.7 C94.4583288,50.7 93.6291704,50.8624984 92.8875,51.1875 C92.1458296,51.5125016 91.508336,51.9624971 90.975,52.5375 C90.441664,53.1125029 90.0291681,53.7833295 89.7375,54.55 C89.4458319,55.3166705 89.3,56.1416622 89.3,57.025 Z M107.775,48.3 L113.925,48.3 C114.775004,48.3 115.595829,48.3791659 116.3875,48.5375 C117.179171,48.6958341 117.88333,48.9666647 118.5,49.35 C119.11667,49.7333352 119.608332,50.2499968 119.975,50.9 C120.341669,51.5500033 120.525,52.374995 120.525,53.375 C120.525,54.6583397 120.170837,55.733329 119.4625,56.6 C118.754163,57.466671 117.741673,57.9916657 116.425,58.175 L121.125,66 L117.325,66 L113.225,58.5 L110.925,58.5 L110.925,66 L107.775,66 L107.775,48.3 Z M113.375,55.8 C113.825002,55.8 114.274998,55.7791669 114.725,55.7375 C115.175002,55.6958331 115.587498,55.5958341 115.9625,55.4375 C116.337502,55.2791659 116.641666,55.0375016 116.875,54.7125 C117.108335,54.3874984 117.225,53.9333362 117.225,53.35 C117.225,52.8333308 117.116668,52.4166683 116.9,52.1 C116.683332,51.7833318 116.400002,51.5458341 116.05,51.3875 C115.699998,51.2291659 115.312502,51.1250002 114.8875,51.075 C114.462498,51.0249997 114.050002,51 113.65,51 L110.925,51 L110.925,55.8 L113.375,55.8 Z M122.575,57.225 C122.575,55.8083263 122.808331,54.5208391 123.275,53.3625 C123.741669,52.2041609 124.387496,51.2166707 125.2125,50.4 C126.037504,49.5833293 127.020828,48.9541689 128.1625,48.5125 C129.304172,48.0708311 130.558327,47.85 131.925,47.85 C133.30834,47.8333332 134.574994,48.0374979 135.725,48.4625 C136.875006,48.8875021 137.866663,49.5083292 138.7,50.325 C139.533338,51.1416707 140.183331,52.1249943 140.65,53.275 C141.116669,54.4250057 141.35,55.7083262 141.35,57.125 C141.35,58.5083403 141.116669,59.766661 140.65,60.9 C140.183331,62.033339 139.533338,63.0083293 138.7,63.825 C137.866663,64.6416708 136.875006,65.2791644 135.725,65.7375 C134.574994,66.1958356 133.30834,66.4333333 131.925,66.45 C130.558327,66.45 129.304172,66.2291689 128.1625,65.7875 C127.020828,65.3458311 126.037504,64.7208374 125.2125,63.9125 C124.387496,63.1041626 123.741669,62.133339 123.275,61 C122.808331,59.866661 122.575,58.6083402 122.575,57.225 Z M125.875,57.025 C125.875,57.9750047 126.020832,58.849996 126.3125,59.65 C126.604168,60.450004 127.016664,61.1416637 127.55,61.725 C128.083336,62.3083362 128.72083,62.766665 129.4625,63.1 C130.20417,63.433335 131.033329,63.6 131.95,63.6 C132.866671,63.6 133.699996,63.433335 134.45,63.1 C135.200004,62.766665 135.841664,62.3083362 136.375,61.725 C136.908336,61.1416637 137.320832,60.450004 137.6125,59.65 C137.904168,58.849996 138.05,57.9750047 138.05,57.025 C138.05,56.1416622 137.904168,55.3166705 137.6125,54.55 C137.320832,53.7833295 136.908336,53.1125029 136.375,52.5375 C135.841664,51.9624971 135.200004,51.5125016 134.45,51.1875 C133.699996,50.8624984 132.866671,50.7 131.95,50.7 C131.033329,50.7 130.20417,50.8624984 129.4625,51.1875 C128.72083,51.5125016 128.083336,51.9624971 127.55,52.5375 C127.016664,53.1125029 126.604168,53.7833295 126.3125,54.55 C126.020832,55.3166705 125.875,56.1416622 125.875,57.025 Z M148.675,58.425 L142.025,48.3 L145.975,48.3 L150.325,55.35 L154.725,48.3 L158.475,48.3 L151.825,58.425 L151.825,66 L148.675,66 L148.675,58.425 Z M163.975,48.3 L166.7,48.3 L174.325,66 L170.725,66 L169.075,61.95 L161.4,61.95 L159.8,66 L156.275,66 L163.975,48.3 Z M167.975,59.25 L165.25,52.05 L162.475,59.25 L167.975,59.25 Z M176.3,48.3 L179.45,48.3 L179.45,63.15 L186.975,63.15 L186.975,66 L176.3,66 L176.3,48.3 Z" id="CHAPOROYAL"></path>
        </g>
    </g>
</svg>