<?xml version="1.0" encoding="UTF-8" standalone="no"?>
<svg width="1003px" height="283px" viewBox="0 0 1003 283" version="1.1" xmlns="http://www.w3.org/2000/svg" xmlns:xlink="http://www.w3.org/1999/xlink">
    <!-- Generator: Sketch 45.2 (43514) - http://www.bohemiancoding.com/sketch -->
    <title>Group</title>
    <desc>Created with Sketch.</desc>
    <defs>
        <path d="M0.185190757,180.286404 C8.2478455,-52.8256186 282.259126,6.83995524 282.259126,6.83995524 C282.259126,6.83995524 282.259125,609.84337 282.259125,939.288016 C282.259125,941.890858 282.259125,1002.98242 282.259125,1002.98242 C282.259125,1002.98242 -7.87746398,413.398426 0.185190757,180.286404 Z" id="path-1"></path>
        <path d="M253.763656,114 L282.726867,114 L282.726872,512 C282.726872,512 -257.069119,114 253.763656,114 Z" id="path-2"></path>
    </defs>
    <g id="Page-1" stroke="none" stroke-width="1" fill="none" fill-rule="evenodd">
        <g id="1-2" transform="translate(-437.000000, 0.000000)">
            <g id="Group" transform="translate(938.500000, 141.500000) scale(-1, 1) rotate(-90.000000) translate(-938.500000, -141.500000) translate(797.000000, -360.000000)">
                <g id="Rectangle-1">
                    <use fill="#7E1421" fill-rule="evenodd" xlink:href="#path-1"></use>
                    <path stroke="#7E1421" stroke-width="1" d="M281.759125,1000.82468 C281.759125,1000.26564 281.759125,999.508699 281.759125,998.445071 L281.759125,942.647808 L281.759125,940.393999 L281.759125,939.288016 C281.759125,771.746086 281.759125,771.746086 281.759125,577.560951 L281.759125,547.899463 C281.759126,342.697818 281.759126,342.697818 281.759126,174.192804 L281.759126,9.89354625 C281.759126,8.11209416 281.759126,7.5829324 281.759126,7.24533425 C281.467654,7.18469344 281.124271,7.11481886 280.730113,7.03645213 C279.557465,6.80330507 278.180385,6.54341497 276.609114,6.26346009 C272.117732,5.46322613 266.972386,4.66285427 261.255003,3.91576284 C222.111328,-1.19914806 180.362608,-1.20736523 141.237552,7.2915276 C102.929354,15.6129796 70.7900871,31.5520997 46.8246366,56.4147323 C18.5961841,85.6999588 2.54409588,126.549334 0.684891959,180.303687 C-2.06403207,259.782129 29.3552967,385.530099 87.079425,544.84593 C103.487771,590.13218 121.770076,637.391679 141.602757,686.103955 C172.469599,761.917919 205.541563,837.538079 238.613523,909.418266 C250.188681,934.576272 260.936987,957.469667 270.582809,977.655215 C273.958759,984.719973 276.95573,990.941566 279.539268,996.264591 C280.381196,997.999267 281.122307,999.52116 281.759125,1000.82468 Z"></path>
                </g>
                <g id="Rectangle-9">
                    <use fill="#7E1421" fill-rule="evenodd" xlink:href="#path-2"></use>
                    <path stroke="#FFFFFF" stroke-width="1" d="M282.226872,511.005869 L282.226867,114.5 L253.763656,114.5 C134.200609,114.5 66.0997483,136.215997 43.2161609,176.434766 C23.8800356,210.418737 37.2008849,256.883281 77.0897944,312.709317 C98.0718941,342.074559 125.828797,373.187819 158.712329,405.22085 C185.905387,431.710585 215.042377,457.333882 244.17947,481.117201 C254.37746,489.441367 263.846855,496.940811 272.344721,503.493915 C275.318683,505.787278 277.95868,507.798465 280.234345,509.512276 C280.992497,510.083243 281.657764,510.581654 282.226872,511.005869 Z"></path>
                </g>
            </g>
        </g>
    </g>
</svg>