<?xml version="1.0" encoding="utf-8"?>
<!-- Generator: Adobe Illustrator 21.1.0, SVG Export Plug-In . SVG Version: 6.00 Build 0)  -->
<svg version="1.1" id="Layer_1" xmlns="http://www.w3.org/2000/svg" xmlns:xlink="http://www.w3.org/1999/xlink" x="0px" y="0px"
	 viewBox="0 0 132 57" style="enable-background:new 0 0 132 57;" xml:space="preserve">
<style type="text/css">
	.st0{fill:#FFFFFF;}
	.st1{fill:none;stroke:#FFFFFF;stroke-width:1.5;stroke-linecap:square;}
</style>
<title>Group 4</title>
<desc>Created with Sketch.</desc>
<g id="_x31_-2" transform="translate(-75.000000, -960.000000)">
	<g id="Group-4" transform="translate(67.000000, 954.000000)">
		<path id="Contact-us" class="st0" d="M36,11.1c-0.5-0.7-1.1-1.1-1.9-1.5c-0.8-0.4-1.6-0.5-2.4-0.5c-1,0-1.9,0.2-2.7,0.6
			c-0.8,0.4-1.5,0.9-2.1,1.5s-1,1.4-1.3,2.3c-0.3,0.9-0.5,1.8-0.5,2.8c0,0.9,0.1,1.8,0.4,2.7c0.3,0.8,0.7,1.6,1.3,2.2
			s1.3,1.1,2.1,1.5s1.7,0.6,2.8,0.6c1,0,1.9-0.2,2.7-0.6c0.8-0.4,1.4-1,2-1.8l2,1.5c-0.1,0.2-0.4,0.4-0.7,0.8
			c-0.3,0.3-0.8,0.7-1.3,1c-0.6,0.3-1.2,0.6-2,0.9c-0.8,0.3-1.7,0.4-2.7,0.4c-1.4,0-2.7-0.3-3.8-0.8c-1.1-0.5-2.1-1.2-2.9-2.1
			s-1.4-1.8-1.8-2.9c-0.4-1.1-0.6-2.2-0.6-3.3c0-1.4,0.2-2.6,0.7-3.8s1.1-2.2,1.9-3s1.8-1.5,2.9-2s2.4-0.7,3.7-0.7
			c1.2,0,2.3,0.2,3.4,0.7s2,1.1,2.8,2.1L36,11.1z M42.6,19.1c0,0.6,0.1,1.2,0.3,1.7c0.2,0.5,0.4,0.9,0.8,1.3
			c0.3,0.4,0.7,0.6,1.2,0.9c0.5,0.2,1,0.3,1.6,0.3s1.1-0.1,1.6-0.3c0.5-0.2,0.9-0.5,1.2-0.9s0.6-0.8,0.8-1.3s0.3-1.1,0.3-1.7
			s-0.1-1.2-0.3-1.7s-0.4-0.9-0.8-1.3c-0.3-0.4-0.7-0.6-1.2-0.8s-1-0.3-1.6-0.3s-1.1,0.1-1.6,0.3s-0.9,0.5-1.2,0.8
			c-0.3,0.4-0.6,0.8-0.8,1.3C42.6,17.9,42.6,18.5,42.6,19.1z M40.2,19.1c0-0.9,0.2-1.7,0.5-2.4c0.3-0.8,0.8-1.4,1.3-2s1.2-1,2-1.3
			s1.6-0.5,2.5-0.5s1.7,0.2,2.5,0.5s1.4,0.8,2,1.3s1,1.2,1.3,2c0.3,0.8,0.5,1.6,0.5,2.4c0,0.9-0.2,1.7-0.5,2.4s-0.8,1.4-1.3,2
			s-1.2,1-2,1.3s-1.6,0.5-2.5,0.5s-1.7-0.2-2.5-0.5s-1.4-0.8-2-1.3s-1-1.2-1.3-2C40.3,20.8,40.2,19.9,40.2,19.1z M55.6,13.1h2.2V15
			l0,0c0.3-0.6,0.8-1.1,1.5-1.5s1.5-0.6,2.4-0.6c0.6,0,1.1,0.1,1.6,0.3s1,0.4,1.4,0.8c0.4,0.4,0.7,0.8,0.9,1.4
			c0.2,0.6,0.3,1.3,0.3,2V25h-2.2v-7c0-0.6-0.1-1-0.2-1.4s-0.3-0.7-0.6-0.9c-0.2-0.2-0.5-0.4-0.9-0.5c-0.3-0.1-0.7-0.2-1-0.2
			c-0.5,0-0.9,0.1-1.3,0.2s-0.7,0.4-1,0.7s-0.5,0.7-0.7,1.2s-0.2,1.1-0.2,1.8V25h-2.2V13.1z M75.8,15.1h-3.2v5.4c0,0.3,0,0.7,0,1
			s0.1,0.6,0.2,0.9c0.1,0.3,0.3,0.5,0.5,0.6c0.2,0.2,0.6,0.2,1,0.2c0.3,0,0.5,0,0.8-0.1s0.5-0.1,0.8-0.3v2c-0.3,0.2-0.6,0.3-1,0.3
			c-0.4,0.1-0.8,0.1-1,0.1c-0.9,0-1.5-0.1-2-0.4S71,24.4,70.8,24c-0.2-0.4-0.4-0.8-0.4-1.3s-0.1-1-0.1-1.4v-6.2h-2.6v-2h2.6V9.8h2.2
			v3.3h3.2v2H75.8z M78.8,14.6c0.6-0.6,1.4-1,2.2-1.3c0.8-0.3,1.7-0.4,2.5-0.4c0.9,0,1.6,0.1,2.2,0.3s1.1,0.5,1.5,0.9
			s0.7,0.8,0.9,1.3s0.3,1,0.3,1.5V23c0,0.4,0,0.8,0,1.1c0,0.4,0,0.7,0.1,1h-2c-0.1-0.6-0.1-1.2-0.1-1.8l0,0
			c-0.5,0.8-1.1,1.3-1.8,1.6c-0.7,0.3-1.5,0.5-2.4,0.5c-0.6,0-1.1-0.1-1.6-0.2c-0.5-0.2-0.9-0.4-1.3-0.7c-0.4-0.3-0.7-0.7-0.9-1.1
			s-0.3-1-0.3-1.5c0-0.8,0.2-1.4,0.5-1.9s0.8-0.9,1.4-1.3c0.6-0.3,1.3-0.6,2.1-0.7c0.8-0.1,1.6-0.2,2.5-0.2h1.7v-0.5
			c0-0.3-0.1-0.6-0.2-0.9s-0.3-0.6-0.5-0.8s-0.5-0.4-0.9-0.6c-0.4-0.1-0.8-0.2-1.2-0.2c-0.4,0-0.8,0-1.1,0.1
			c-0.3,0.1-0.6,0.2-0.9,0.3s-0.5,0.3-0.7,0.4c-0.2,0.2-0.4,0.3-0.6,0.5L78.8,14.6z M85.1,19.3c-0.5,0-1.1,0-1.6,0.1
			c-0.6,0.1-1.1,0.2-1.5,0.3c-0.5,0.2-0.8,0.4-1.1,0.7c-0.3,0.3-0.4,0.7-0.4,1.2c0,0.7,0.2,1.2,0.7,1.5s1.1,0.5,1.9,0.5
			c0.6,0,1.1-0.1,1.6-0.3c0.4-0.2,0.8-0.5,1-0.8s0.5-0.7,0.6-1.1s0.2-0.8,0.2-1.2v-0.8h-1.4V19.3z M100.2,16.3
			c-0.4-0.4-0.9-0.8-1.3-1s-1-0.3-1.6-0.3s-1.2,0.1-1.6,0.3s-0.8,0.5-1.1,0.9c-0.3,0.4-0.5,0.8-0.7,1.4c-0.2,0.5-0.2,1-0.2,1.6
			s0.1,1.1,0.3,1.6c0.2,0.5,0.4,0.9,0.8,1.3s0.7,0.7,1.2,0.9c0.5,0.2,1,0.3,1.6,0.3s1.2-0.1,1.6-0.3c0.5-0.2,0.9-0.6,1.2-1l1.6,1.6
			c-0.6,0.7-1.3,1.1-2,1.4s-1.6,0.4-2.5,0.4S95.7,25.3,95,25c-0.8-0.3-1.4-0.7-2-1.3s-1-1.2-1.3-1.9s-0.4-1.6-0.4-2.5
			s0.1-1.8,0.4-2.5c0.3-0.8,0.7-1.4,1.3-2c0.5-0.6,1.2-1,1.9-1.3c0.8-0.3,1.6-0.5,2.5-0.5s1.7,0.2,2.5,0.5s1.5,0.8,2.1,1.4
			L100.2,16.3z M110.1,15.1h-3.2v5.4c0,0.3,0,0.7,0,1s0.1,0.6,0.2,0.9s0.3,0.5,0.5,0.6c0.2,0.2,0.6,0.2,1,0.2c0.3,0,0.5,0,0.8-0.1
			s0.5-0.1,0.8-0.3v2c-0.3,0.2-0.6,0.3-1,0.3c-0.4,0.1-0.8,0.1-1,0.1c-0.9,0-1.5-0.1-2-0.4c-0.5-0.2-0.8-0.6-1-0.9
			c-0.2-0.4-0.4-0.8-0.4-1.3s-0.1-1-0.1-1.4V15H102v-2h2.6V9.8h2.2v3.3h3.2v2H110.1z"/>
		<path id="Line-2" class="st1" d="M25.5,61.8h113"/>
		<path id="Line-2_1_" class="st1" d="M22.5,29.3h87.7"/>
	</g>
</g>
</svg>
