<?xml version="1.0" encoding="UTF-8" standalone="no"?>
<svg width="132px" height="57px" viewBox="0 0 132 57" version="1.1" xmlns="http://www.w3.org/2000/svg" xmlns:xlink="http://www.w3.org/1999/xlink">
    <!-- Generator: Sketch 45.2 (43514) - http://www.bohemiancoding.com/sketch -->
    <title>Group 4</title>
    <desc>Created with Sketch.</desc>
    <defs></defs>
    <g id="Page-1" stroke="none" stroke-width="1" fill="none" fill-rule="evenodd">
        <g id="1-2" transform="translate(-75.000000, -960.000000)">
            <g id="Group-4" transform="translate(67.000000, 954.000000)">
                <path d="M23.0273781,11.125 C22.5273756,10.4749967 21.8940486,9.97500175 21.1273781,9.625 C20.3607076,9.27499825 19.5690489,9.1 18.7523781,9.1 C17.7523731,9.1 16.8482155,9.28749813 16.0398781,9.6625 C15.2315408,10.0375019 14.539881,10.5499968 13.9648781,11.2 C13.3898753,11.8500032 12.9440464,12.6124956 12.6273781,13.4875 C12.3107099,14.3625044 12.1523781,15.299995 12.1523781,16.3 C12.1523781,17.233338 12.3023766,18.1166625 12.6023781,18.95 C12.9023796,19.7833375 13.3357086,20.5166635 13.9023781,21.15 C14.4690476,21.7833365 15.1607074,22.2833315 15.9773781,22.65 C16.7940489,23.0166685 17.7190396,23.2 18.7523781,23.2 C19.7690499,23.2 20.6607076,22.9916687 21.4273781,22.575 C22.1940486,22.1583312 22.8440421,21.5750038 23.3773781,20.825 L25.4023781,22.35 C25.2690441,22.5333342 25.0357131,22.7958316 24.7023781,23.1375 C24.3690431,23.4791684 23.9273809,23.8208316 23.3773781,24.1625 C22.8273754,24.5041684 22.164882,24.8041654 21.3898781,25.0625 C20.6148743,25.3208346 19.7190499,25.45 18.7023781,25.45 C17.3023711,25.45 16.0398838,25.183336 14.9148781,24.65 C13.7898725,24.116664 12.8315488,23.416671 12.0398781,22.55 C11.2482075,21.683329 10.6440469,20.7041721 10.2273781,19.6125 C9.81070939,18.5208279 9.60237814,17.4166723 9.60237814,16.3 C9.60237814,14.9333265 9.82737589,13.6708391 10.2773781,12.5125 C10.7273804,11.3541609 11.3565408,10.3541709 12.1648781,9.5125 C12.9732155,8.67082912 13.9440391,8.016669 15.0773781,7.55 C16.2107171,7.083331 17.4607046,6.85 18.8273781,6.85 C19.9940506,6.85 21.1398725,7.07499775 22.2648781,7.525 C23.3898838,7.97500225 24.3107079,8.666662 25.0273781,9.6 L23.0273781,11.125 Z M29.5523781,19.075 C29.5523781,19.675003 29.6440439,20.2291641 29.8273781,20.7375 C30.0107124,21.2458359 30.2690431,21.6791649 30.6023781,22.0375 C30.9357131,22.3958351 31.3440424,22.6791656 31.8273781,22.8875 C32.3107139,23.0958344 32.8523751,23.2 33.4523781,23.2 C34.0523811,23.2 34.5940424,23.0958344 35.0773781,22.8875 C35.5607139,22.6791656 35.9690431,22.3958351 36.3023781,22.0375 C36.6357131,21.6791649 36.8940439,21.2458359 37.0773781,20.7375 C37.2607124,20.2291641 37.3523781,19.675003 37.3523781,19.075 C37.3523781,18.474997 37.2607124,17.9208359 37.0773781,17.4125 C36.8940439,16.9041641 36.6357131,16.4708351 36.3023781,16.1125 C35.9690431,15.7541649 35.5607139,15.4708344 35.0773781,15.2625 C34.5940424,15.0541656 34.0523811,14.95 33.4523781,14.95 C32.8523751,14.95 32.3107139,15.0541656 31.8273781,15.2625 C31.3440424,15.4708344 30.9357131,15.7541649 30.6023781,16.1125 C30.2690431,16.4708351 30.0107124,16.9041641 29.8273781,17.4125 C29.6440439,17.9208359 29.5523781,18.474997 29.5523781,19.075 Z M27.1523781,19.075 C27.1523781,18.208329 27.3148765,17.4000037 27.6398781,16.65 C27.9648798,15.8999962 28.4107086,15.2416695 28.9773781,14.675 C29.5440476,14.1083305 30.2107076,13.6625016 30.9773781,13.3375 C31.7440486,13.0124984 32.5690404,12.85 33.4523781,12.85 C34.3357159,12.85 35.1607076,13.0124984 35.9273781,13.3375 C36.6940486,13.6625016 37.3607086,14.1083305 37.9273781,14.675 C38.4940476,15.2416695 38.9398765,15.8999962 39.2648781,16.65 C39.5898798,17.4000037 39.7523781,18.208329 39.7523781,19.075 C39.7523781,19.941671 39.5898798,20.7541629 39.2648781,21.5125 C38.9398765,22.2708371 38.4940476,22.9291639 37.9273781,23.4875 C37.3607086,24.0458361 36.6940486,24.4874984 35.9273781,24.8125 C35.1607076,25.1375016 34.3357159,25.3 33.4523781,25.3 C32.5690404,25.3 31.7440486,25.1375016 30.9773781,24.8125 C30.2107076,24.4874984 29.5440476,24.0458361 28.9773781,23.4875 C28.4107086,22.9291639 27.9648798,22.2708371 27.6398781,21.5125 C27.3148765,20.7541629 27.1523781,19.941671 27.1523781,19.075 Z M42.5773781,13.15 L44.8273781,13.15 L44.8273781,14.975 L44.8773781,14.975 C45.1607129,14.3416635 45.6523746,13.8291686 46.3523781,13.4375 C47.0523816,13.0458314 47.8607069,12.85 48.7773781,12.85 C49.3440476,12.85 49.8898755,12.9374991 50.4148781,13.1125 C50.9398808,13.2875009 51.3982095,13.5583315 51.7898781,13.925 C52.1815468,14.2916685 52.4940436,14.7624971 52.7273781,15.3375 C52.9607126,15.9125029 53.0773781,16.5916628 53.0773781,17.375 L53.0773781,25 L50.8273781,25 L50.8273781,18 C50.8273781,17.4499973 50.7523789,16.9791686 50.6023781,16.5875 C50.4523774,16.1958314 50.2523794,15.8791679 50.0023781,15.6375 C49.7523769,15.3958321 49.4648798,15.2208339 49.1398781,15.1125 C48.8148765,15.0041661 48.4773799,14.95 48.1273781,14.95 C47.6607091,14.95 47.2273801,15.0249992 46.8273781,15.175 C46.4273761,15.3250007 46.0773796,15.5624984 45.7773781,15.8875 C45.4773766,16.2125016 45.2440456,16.6249975 45.0773781,17.125 C44.9107106,17.6250025 44.8273781,18.2166632 44.8273781,18.9 L44.8273781,25 L42.5773781,25 L42.5773781,13.15 Z M62.8273781,15.1 L59.6023781,15.1 L59.6023781,20.475 C59.6023781,20.808335 59.6107114,21.1374984 59.6273781,21.4625 C59.6440449,21.7875016 59.7065443,22.0791654 59.8148781,22.3375 C59.923212,22.5958346 60.089877,22.8041659 60.3148781,22.9625 C60.5398793,23.1208341 60.8690426,23.2 61.3023781,23.2 C61.5690461,23.2 61.8440434,23.1750003 62.1273781,23.125 C62.4107129,23.0749997 62.6690436,22.983334 62.9023781,22.85 L62.9023781,24.9 C62.6357101,25.0500007 62.2898803,25.1541664 61.8648781,25.2125 C61.439876,25.2708336 61.1107126,25.3 60.8773781,25.3 C60.0107071,25.3 59.3398805,25.1791679 58.8648781,24.9375 C58.3898758,24.6958321 58.0398793,24.3833352 57.8148781,24 C57.589877,23.6166647 57.456545,23.1875024 57.4148781,22.7125 C57.3732113,22.2374976 57.3523781,21.7583358 57.3523781,21.275 L57.3523781,15.1 L54.7523781,15.1 L54.7523781,13.15 L57.3523781,13.15 L57.3523781,9.825 L59.6023781,9.825 L59.6023781,13.15 L62.8273781,13.15 L62.8273781,15.1 Z M65.7773781,14.6 C66.4107146,14.0166637 67.1440406,13.5791681 67.9773781,13.2875 C68.8107156,12.9958319 69.6440406,12.85 70.4773781,12.85 C71.3440491,12.85 72.089875,12.9583322 72.7148781,13.175 C73.3398813,13.3916677 73.8523761,13.6833315 74.2523781,14.05 C74.6523801,14.4166685 74.9482105,14.8374976 75.1398781,15.3125 C75.3315458,15.7875024 75.4273781,16.2833307 75.4273781,16.8 L75.4273781,22.85 C75.4273781,23.2666687 75.4357114,23.6499982 75.4523781,24 C75.4690449,24.3500017 75.4940446,24.6833317 75.5273781,25 L73.5273781,25 C73.4773779,24.399997 73.4523781,23.800003 73.4523781,23.2 L73.4023781,23.2 C72.9023756,23.9666705 72.3107149,24.5083317 71.6273781,24.825 C70.9440414,25.1416682 70.1523826,25.3 69.2523781,25.3 C68.7023754,25.3 68.1773806,25.2250007 67.6773781,25.075 C67.1773756,24.9249992 66.73988,24.7000015 66.3648781,24.4 C65.9898763,24.0999985 65.6940459,23.7291689 65.4773781,23.2875 C65.2607104,22.8458311 65.1523781,22.3333362 65.1523781,21.75 C65.1523781,20.9833295 65.3232098,20.3416692 65.6648781,19.825 C66.0065465,19.3083307 66.4732085,18.8875016 67.0648781,18.5625 C67.6565478,18.2374984 68.3482075,18.0041674 69.1398781,17.8625 C69.9315488,17.7208326 70.7773736,17.65 71.6773781,17.65 L73.3273781,17.65 L73.3273781,17.15 C73.3273781,16.8499985 73.2690454,16.5500015 73.1523781,16.25 C73.0357109,15.9499985 72.8607126,15.6791679 72.6273781,15.4375 C72.3940436,15.1958321 72.1023799,15.0041674 71.7523781,14.8625 C71.4023764,14.7208326 70.9857139,14.65 70.5023781,14.65 C70.0690426,14.65 69.6898798,14.6916662 69.3648781,14.775 C69.0398765,14.8583337 68.7440461,14.9624994 68.4773781,15.0875 C68.2107101,15.2125006 67.9690459,15.3583325 67.7523781,15.525 C67.5357104,15.6916675 67.3273791,15.8499992 67.1273781,16 L65.7773781,14.6 Z M72.1273781,19.3 C71.5940421,19.3 71.0482143,19.3291664 70.4898781,19.3875 C69.931542,19.4458336 69.4232138,19.5583325 68.9648781,19.725 C68.5065425,19.8916675 68.1315463,20.1249985 67.8398781,20.425 C67.54821,20.7250015 67.4023781,21.108331 67.4023781,21.575 C67.4023781,22.2583367 67.6315425,22.7499985 68.0898781,23.05 C68.5482138,23.3500015 69.1690409,23.5 69.9523781,23.5 C70.5690479,23.5 71.0940426,23.3958344 71.5273781,23.1875 C71.9607136,22.9791656 72.3107101,22.708335 72.5773781,22.375 C72.8440461,22.041665 73.0357109,21.6708354 73.1523781,21.2625 C73.2690454,20.8541646 73.3273781,20.450002 73.3273781,20.05 L73.3273781,19.3 L72.1273781,19.3 Z M87.1773781,16.3 C86.7607094,15.8666645 86.3232138,15.5375011 85.8648781,15.3125 C85.4065425,15.0874989 84.8607146,14.975 84.2273781,14.975 C83.6107084,14.975 83.0732138,15.0874989 82.6148781,15.3125 C82.1565425,15.5375011 81.773213,15.8458314 81.4648781,16.2375 C81.1565433,16.6291686 80.9232123,17.0791641 80.7648781,17.5875 C80.606544,18.0958359 80.5273781,18.6249972 80.5273781,19.175 C80.5273781,19.7250028 80.6190439,20.2458309 80.8023781,20.7375 C80.9857124,21.2291691 81.2440431,21.6583315 81.5773781,22.025 C81.9107131,22.3916685 82.3107091,22.6791656 82.7773781,22.8875 C83.2440471,23.0958344 83.7690419,23.2 84.3523781,23.2 C84.9857146,23.2 85.5273759,23.0875011 85.9773781,22.8625 C86.4273804,22.6374989 86.8440429,22.3083355 87.2273781,21.875 L88.8273781,23.475 C88.2440419,24.1250032 87.564882,24.5916652 86.7898781,24.875 C86.0148743,25.1583348 85.1940491,25.3 84.3273781,25.3 C83.4107069,25.3 82.5732153,25.1500015 81.8148781,24.85 C81.056541,24.5499985 80.4023809,24.1291694 79.8523781,23.5875 C79.3023754,23.0458306 78.8773796,22.3958371 78.5773781,21.6375 C78.2773766,20.8791629 78.1273781,20.0416713 78.1273781,19.125 C78.1273781,18.2083287 78.2773766,17.3666705 78.5773781,16.6 C78.8773796,15.8333295 79.2982088,15.1750027 79.8398781,14.625 C80.3815475,14.0749972 81.031541,13.6458349 81.7898781,13.3375 C82.5482153,13.0291651 83.3940401,12.875 84.3273781,12.875 C85.1940491,12.875 86.0232075,13.0291651 86.8148781,13.3375 C87.6065488,13.6458349 88.2940419,14.1166635 88.8773781,14.75 L87.1773781,16.3 Z M97.1023781,15.1 L93.8773781,15.1 L93.8773781,20.475 C93.8773781,20.808335 93.8857114,21.1374984 93.9023781,21.4625 C93.9190449,21.7875016 93.9815443,22.0791654 94.0898781,22.3375 C94.198212,22.5958346 94.364877,22.8041659 94.5898781,22.9625 C94.8148793,23.1208341 95.1440426,23.2 95.5773781,23.2 C95.8440461,23.2 96.1190434,23.1750003 96.4023781,23.125 C96.6857129,23.0749997 96.9440436,22.983334 97.1773781,22.85 L97.1773781,24.9 C96.9107101,25.0500007 96.5648803,25.1541664 96.1398781,25.2125 C95.714876,25.2708336 95.3857126,25.3 95.1523781,25.3 C94.2857071,25.3 93.6148805,25.1791679 93.1398781,24.9375 C92.6648758,24.6958321 92.3148793,24.3833352 92.0898781,24 C91.864877,23.6166647 91.731545,23.1875024 91.6898781,22.7125 C91.6482113,22.2374976 91.6273781,21.7583358 91.6273781,21.275 L91.6273781,15.1 L89.0273781,15.1 L89.0273781,13.15 L91.6273781,13.15 L91.6273781,9.825 L93.8773781,9.825 L93.8773781,13.15 L97.1023781,13.15 L97.1023781,15.1 Z M117.452378,25 L115.202378,25 L115.202378,23.175 L115.152378,23.175 C114.869043,23.8083365 114.377382,24.3208314 113.677378,24.7125 C112.977375,25.1041686 112.169049,25.3 111.252378,25.3 C110.669042,25.3 110.119047,25.2125009 109.602378,25.0375 C109.085709,24.8624991 108.631547,24.5916685 108.239878,24.225 C107.84821,23.8583315 107.535713,23.3875029 107.302378,22.8125 C107.069044,22.2374971 106.952378,21.5583373 106.952378,20.775 L106.952378,13.15 L109.202378,13.15 L109.202378,20.15 C109.202378,20.7000027 109.277377,21.1708314 109.427378,21.5625 C109.577379,21.9541686 109.777377,22.2708321 110.027378,22.5125 C110.277379,22.7541679 110.564877,22.9291661 110.889878,23.0375 C111.21488,23.1458339 111.552376,23.2 111.902378,23.2 C112.369047,23.2 112.802376,23.1250007 113.202378,22.975 C113.60238,22.8249993 113.952377,22.5875016 114.252378,22.2625 C114.55238,21.9374984 114.785711,21.5250025 114.952378,21.025 C115.119046,20.5249975 115.202378,19.9333367 115.202378,19.25 L115.202378,13.15 L117.452378,13.15 L117.452378,25 Z M127.152378,16.125 C126.88571,15.791665 126.556547,15.5125011 126.164878,15.2875 C125.77321,15.0624989 125.294048,14.95 124.727378,14.95 C124.194042,14.95 123.731547,15.0624989 123.339878,15.2875 C122.94821,15.5125011 122.752378,15.8416645 122.752378,16.275 C122.752378,16.6250017 122.864877,16.9083323 123.089878,17.125 C123.314879,17.3416677 123.581543,17.516666 123.889878,17.65 C124.198213,17.783334 124.527376,17.883333 124.877378,17.95 C125.22738,18.016667 125.527377,18.0749997 125.777378,18.125 C126.260714,18.2416672 126.714876,18.3833325 127.139878,18.55 C127.56488,18.7166675 127.931543,18.933332 128.239878,19.2 C128.548213,19.466668 128.789877,19.7916648 128.964878,20.175 C129.139879,20.5583352 129.227378,21.0249972 129.227378,21.575 C129.227378,22.24167 129.085713,22.8124976 128.802378,23.2875 C128.519043,23.7625024 128.15238,24.1499985 127.702378,24.45 C127.252376,24.7500015 126.739881,24.966666 126.164878,25.1 C125.589875,25.233334 125.010714,25.3 124.427378,25.3 C123.44404,25.3 122.581549,25.1500015 121.839878,24.85 C121.098208,24.5499985 120.435714,24.000004 119.852378,23.2 L121.552378,21.8 C121.919047,22.1666685 122.327376,22.4916652 122.777378,22.775 C123.22738,23.0583348 123.777375,23.2 124.427378,23.2 C124.710713,23.2 124.99821,23.1708336 125.289878,23.1125 C125.581546,23.0541664 125.839877,22.9625006 126.064878,22.8375 C126.289879,22.7124994 126.473211,22.5541676 126.614878,22.3625 C126.756546,22.1708324 126.827378,21.9500012 126.827378,21.7 C126.827378,21.366665 126.723213,21.0916677 126.514878,20.875 C126.306544,20.6583322 126.056546,20.4875006 125.764878,20.3625 C125.47321,20.2374994 125.16488,20.1375004 124.839878,20.0625 C124.514877,19.9874996 124.227379,19.9250003 123.977378,19.875 C123.494042,19.7583327 123.035714,19.6250007 122.602378,19.475 C122.169043,19.3249992 121.785713,19.1250013 121.452378,18.875 C121.119043,18.6249987 120.852379,18.3083352 120.652378,17.925 C120.452377,17.5416648 120.352378,17.0666695 120.352378,16.5 C120.352378,15.8833302 120.481544,15.3458356 120.739878,14.8875 C120.998213,14.4291644 121.339876,14.0500015 121.764878,13.75 C122.18988,13.4499985 122.673209,13.2250007 123.214878,13.075 C123.756548,12.9249992 124.302375,12.85 124.852378,12.85 C125.652382,12.85 126.419041,12.9999985 127.152378,13.3 C127.885715,13.6000015 128.469043,14.0999965 128.902378,14.8 L127.152378,16.125 Z" id="Contact-us" fill="#FFFFFF"></path>
                <path d="M25.5,61.75 L138.517698,61.75" id="Line-2" stroke="#FFFFFF" stroke-width="1.5" stroke-linecap="square"></path>
                <path d="M9.5,29.3 L128.5,29.3" id="Line-2" stroke="#FFFFFF" stroke-width="1.5" stroke-linecap="square"></path>
            </g>
        </g>
    </g>
</svg>