<?xml version="1.0" encoding="UTF-8" standalone="no"?>
<svg width="236px" height="73px" viewBox="0 0 236 73" version="1.1" xmlns="http://www.w3.org/2000/svg" xmlns:xlink="http://www.w3.org/1999/xlink">
    <!-- Generator: Sketch 45.2 (43514) - http://www.bohemiancoding.com/sketch -->
    <title>Group 3</title>
    <desc>Created with Sketch.</desc>
    <defs></defs>
    <g id="Page-1" stroke="none" stroke-width="1" fill="none" fill-rule="evenodd">
        <g id="1-2" transform="translate(-140.000000, -80.000000)">
            <g id="Group-3" transform="translate(0.000000, 78.000000)">
                <g transform="translate(139.000000, 2.000000)">
                    <path d="M19.7879369,6.575 C19.0879334,5.66499545 18.2012756,4.96500245 17.1279369,4.475 C16.0545982,3.98499755 14.946276,3.74 13.8029369,3.74 C12.4029299,3.74 11.1371093,4.00249737 10.0054369,4.5275 C8.87376461,5.05250263 7.90544096,5.76999545 7.10043694,6.68 C6.29543291,7.59000455 5.67127249,8.65749388 5.22793694,9.8825 C4.78460139,11.1075061 4.56293694,12.419993 4.56293694,13.82 C4.56293694,15.1266732 4.77293484,16.3633275 5.19293694,17.53 C5.61293904,18.6966725 6.21959964,19.7233289 7.01293694,20.61 C7.80627424,21.4966711 8.77459789,22.1966641 9.91793694,22.71 C11.061276,23.2233359 12.356263,23.48 13.8029369,23.48 C15.2262774,23.48 16.4745982,23.1883362 17.5479369,22.605 C18.6212756,22.0216637 19.5312665,21.2050052 20.2779369,20.155 L23.1129369,22.29 C22.9262693,22.5466679 22.5996059,22.9141643 22.1329369,23.3925 C21.6662679,23.8708357 21.0479408,24.3491643 20.2779369,24.8275 C19.5079331,25.3058357 18.5804424,25.7258315 17.4954369,26.0875 C16.4104315,26.4491685 15.1562774,26.63 13.7329369,26.63 C11.7729271,26.63 10.0054448,26.2566704 8.43043694,25.51 C6.85542906,24.7633296 5.51377581,23.7833394 4.40543694,22.57 C3.29709806,21.3566606 2.45127319,19.985841 1.86793694,18.4575 C1.28460069,16.929159 0.992936939,15.3833411 0.992936939,13.82 C0.992936939,11.9066571 1.30793379,10.1391748 1.93793694,8.5175 C2.56794009,6.89582522 3.44876461,5.49583922 4.58043694,4.3175 C5.71210926,3.13916077 7.07126234,2.2233366 8.65793694,1.57 C10.2446115,0.9166634 11.994594,0.59 13.9079369,0.59 C15.5412784,0.59 17.1454291,0.90499685 18.7204369,1.535 C20.2954448,2.16500315 21.5845986,3.1333268 22.5879369,4.44 L19.7879369,6.575 Z M27.1729369,1.22 L30.5329369,1.22 L30.5329369,11.51 L43.3779369,11.51 L43.3779369,1.22 L46.7379369,1.22 L46.7379369,26 L43.3779369,26 L43.3779369,14.66 L30.5329369,14.66 L30.5329369,26 L27.1729369,26 L27.1729369,1.22 Z M60.8779369,1.22 L63.9229369,1.22 L74.5279369,26 L70.6079369,26 L68.1229369,19.875 L56.3279369,19.875 L53.8779369,26 L49.9579369,26 L60.8779369,1.22 Z M66.8979369,16.935 L62.2779369,5.56 L62.2079369,5.56 L57.5179369,16.935 L66.8979369,16.935 Z M77.7479369,1.22 L86.4629369,1.22 C88.0496115,1.22 89.3562651,1.43583117 90.3829369,1.8675 C91.4096087,2.29916882 92.220434,2.84749668 92.8154369,3.5125 C93.4104399,4.17750333 93.8246024,4.92416252 94.0579369,5.7525 C94.2912714,6.58083747 94.4079369,7.37999615 94.4079369,8.15 C94.4079369,8.92000385 94.2912714,9.71916253 94.0579369,10.5475 C93.8246024,11.3758375 93.4104399,12.1224967 92.8154369,12.7875 C92.220434,13.4525033 91.4096087,14.0008312 90.3829369,14.4325 C89.3562651,14.8641688 88.0496115,15.08 86.4629369,15.08 L81.1079369,15.08 L81.1079369,26 L77.7479369,26 L77.7479369,1.22 Z M81.1079369,12.14 L85.5179369,12.14 C86.1712735,12.14 86.8187671,12.0875005 87.4604369,11.9825 C88.1021068,11.8774995 88.6737678,11.6850014 89.1754369,11.405 C89.6771061,11.1249986 90.0796021,10.7225026 90.3829369,10.1975 C90.6862718,9.67249737 90.8379369,8.9900042 90.8379369,8.15 C90.8379369,7.3099958 90.6862718,6.62750262 90.3829369,6.1025 C90.0796021,5.57749737 89.6771061,5.1750014 89.1754369,4.895 C88.6737678,4.6149986 88.1021068,4.42250052 87.4604369,4.3175 C86.8187671,4.21249948 86.1712735,4.16 85.5179369,4.16 L81.1079369,4.16 L81.1079369,12.14 Z M109.877937,26.63 C107.987927,26.63 106.249612,26.2975033 104.662937,25.6325 C103.076262,24.9674967 101.717109,24.0516725 100.585437,22.885 C99.4537646,21.7183275 98.5671068,20.3416746 97.9254369,18.755 C97.2837671,17.1683254 96.9629369,15.4533426 96.9629369,13.61 C96.9629369,11.7666574 97.2837671,10.0516746 97.9254369,8.465 C98.5671068,6.8783254 99.4537646,5.5016725 100.585437,4.335 C101.717109,3.1683275 103.076262,2.25250332 104.662937,1.5875 C106.249612,0.922496675 107.987927,0.59 109.877937,0.59 C111.767946,0.59 113.506262,0.922496675 115.092937,1.5875 C116.679612,2.25250332 118.038765,3.1683275 119.170437,4.335 C120.302109,5.5016725 121.188767,6.8783254 121.830437,8.465 C122.472107,10.0516746 122.792937,11.7666574 122.792937,13.61 C122.792937,15.4533426 122.472107,17.1683254 121.830437,18.755 C121.188767,20.3416746 120.302109,21.7183275 119.170437,22.885 C118.038765,24.0516725 116.679612,24.9674967 115.092937,25.6325 C113.506262,26.2975033 111.767946,26.63 109.877937,26.63 Z M109.877937,23.48 C111.301277,23.48 112.584598,23.2175026 113.727937,22.6925 C114.871276,22.1674974 115.851266,21.4616711 116.667937,20.575 C117.484608,19.6883289 118.114601,18.6441727 118.557937,17.4425 C119.001272,16.2408273 119.222937,14.9633401 119.222937,13.61 C119.222937,12.2566599 119.001272,10.9791727 118.557937,9.7775 C118.114601,8.57582732 117.484608,7.5316711 116.667937,6.645 C115.851266,5.7583289 114.871276,5.05250263 113.727937,4.5275 C112.584598,4.00249737 111.301277,3.74 109.877937,3.74 C108.454596,3.74 107.171276,4.00249737 106.027937,4.5275 C104.884598,5.05250263 103.904608,5.7583289 103.087937,6.645 C102.271266,7.5316711 101.641272,8.57582732 101.197937,9.7775 C100.754601,10.9791727 100.532937,12.2566599 100.532937,13.61 C100.532937,14.9633401 100.754601,16.2408273 101.197937,17.4425 C101.641272,18.6441727 102.271266,19.6883289 103.087937,20.575 C103.904608,21.4616711 104.884598,22.1674974 106.027937,22.6925 C107.171276,23.2175026 108.454596,23.48 109.877937,23.48 Z M127.622937,1.22 L136.337937,1.22 C137.924612,1.22 139.231265,1.43583117 140.257937,1.8675 C141.284609,2.29916882 142.095434,2.84749668 142.690437,3.5125 C143.28544,4.17750333 143.699602,4.92416252 143.932937,5.7525 C144.166271,6.58083747 144.282937,7.37999615 144.282937,8.15 C144.282937,8.9433373 144.142938,9.70749632 143.862937,10.4425 C143.582936,11.1775037 143.18044,11.842497 142.655437,12.4375 C142.130434,13.032503 141.488774,13.5341646 140.730437,13.9425 C139.9721,14.3508354 139.126275,14.6016662 138.192937,14.695 L145.227937,26 L141.027937,26 L134.727937,15.08 L130.982937,15.08 L130.982937,26 L127.622937,26 L127.622937,1.22 Z M130.982937,12.14 L135.392937,12.14 C136.046274,12.14 136.693767,12.0875005 137.335437,11.9825 C137.977107,11.8774995 138.548768,11.6850014 139.050437,11.405 C139.552106,11.1249986 139.954602,10.7225026 140.257937,10.1975 C140.561272,9.67249737 140.712937,8.9900042 140.712937,8.15 C140.712937,7.3099958 140.561272,6.62750262 140.257937,6.1025 C139.954602,5.57749737 139.552106,5.1750014 139.050437,4.895 C138.548768,4.6149986 137.977107,4.42250052 137.335437,4.3175 C136.693767,4.21249948 136.046274,4.16 135.392937,4.16 L130.982937,4.16 L130.982937,12.14 Z M160.382937,26.63 C158.492927,26.63 156.754612,26.2975033 155.167937,25.6325 C153.581262,24.9674967 152.222109,24.0516725 151.090437,22.885 C149.958765,21.7183275 149.072107,20.3416746 148.430437,18.755 C147.788767,17.1683254 147.467937,15.4533426 147.467937,13.61 C147.467937,11.7666574 147.788767,10.0516746 148.430437,8.465 C149.072107,6.8783254 149.958765,5.5016725 151.090437,4.335 C152.222109,3.1683275 153.581262,2.25250332 155.167937,1.5875 C156.754612,0.922496675 158.492927,0.59 160.382937,0.59 C162.272946,0.59 164.011262,0.922496675 165.597937,1.5875 C167.184612,2.25250332 168.543765,3.1683275 169.675437,4.335 C170.807109,5.5016725 171.693767,6.8783254 172.335437,8.465 C172.977107,10.0516746 173.297937,11.7666574 173.297937,13.61 C173.297937,15.4533426 172.977107,17.1683254 172.335437,18.755 C171.693767,20.3416746 170.807109,21.7183275 169.675437,22.885 C168.543765,24.0516725 167.184612,24.9674967 165.597937,25.6325 C164.011262,26.2975033 162.272946,26.63 160.382937,26.63 Z M160.382937,23.48 C161.806277,23.48 163.089598,23.2175026 164.232937,22.6925 C165.376276,22.1674974 166.356266,21.4616711 167.172937,20.575 C167.989608,19.6883289 168.619601,18.6441727 169.062937,17.4425 C169.506272,16.2408273 169.727937,14.9633401 169.727937,13.61 C169.727937,12.2566599 169.506272,10.9791727 169.062937,9.7775 C168.619601,8.57582732 167.989608,7.5316711 167.172937,6.645 C166.356266,5.7583289 165.376276,5.05250263 164.232937,4.5275 C163.089598,4.00249737 161.806277,3.74 160.382937,3.74 C158.959596,3.74 157.676276,4.00249737 156.532937,4.5275 C155.389598,5.05250263 154.409608,5.7583289 153.592937,6.645 C152.776266,7.5316711 152.146272,8.57582732 151.702937,9.7775 C151.259601,10.9791727 151.037937,12.2566599 151.037937,13.61 C151.037937,14.9633401 151.259601,16.2408273 151.702937,17.4425 C152.146272,18.6441727 152.776266,19.6883289 153.592937,20.575 C154.409608,21.4616711 155.389598,22.1674974 156.532937,22.6925 C157.676276,23.2175026 158.959596,23.48 160.382937,23.48 Z M183.972937,15.43 L174.592937,1.22 L178.897937,1.22 L185.652937,12.105 L192.617937,1.22 L196.712937,1.22 L187.332937,15.43 L187.332937,26 L183.972937,26 L183.972937,15.43 Z M204.727937,1.22 L207.772937,1.22 L218.377937,26 L214.457937,26 L211.972937,19.875 L200.177937,19.875 L197.727937,26 L193.807937,26 L204.727937,1.22 Z M210.747937,16.935 L206.127937,5.56 L206.057937,5.56 L201.367937,16.935 L210.747937,16.935 Z M221.597937,1.22 L224.957937,1.22 L224.957937,22.85 L236.332937,22.85 L236.332937,26 L221.597937,26 L221.597937,1.22 Z M87.1379369,41.3 L89.5379369,41.3 L89.5379369,56.75 L97.6629369,56.75 L97.6629369,59 L87.1379369,59 L87.1379369,41.3 Z M101.512937,51.45 L94.8129369,41.3 L97.8879369,41.3 L102.712937,49.075 L107.687937,41.3 L110.612937,41.3 L103.912937,51.45 L103.912937,59 L101.512937,59 L101.512937,51.45 Z M120.762937,59.45 C119.41293,59.45 118.171276,59.2125024 117.037937,58.7375 C115.904598,58.2624976 114.933774,57.6083375 114.125437,56.775 C113.3171,55.9416625 112.683773,54.958339 112.225437,53.825 C111.767101,52.691661 111.537937,51.4666732 111.537937,50.15 C111.537937,48.8333267 111.767101,47.608339 112.225437,46.475 C112.683773,45.341661 113.3171,44.3583375 114.125437,43.525 C114.933774,42.6916625 115.904598,42.0375024 117.037937,41.5625 C118.171276,41.0874976 119.41293,40.85 120.762937,40.85 C122.112944,40.85 123.354598,41.0874976 124.487937,41.5625 C125.621276,42.0375024 126.5921,42.6916625 127.400437,43.525 C128.208774,44.3583375 128.842101,45.341661 129.300437,46.475 C129.758773,47.608339 129.987937,48.8333267 129.987937,50.15 C129.987937,51.4666732 129.758773,52.691661 129.300437,53.825 C128.842101,54.958339 128.208774,55.9416625 127.400437,56.775 C126.5921,57.6083375 125.621276,58.2624976 124.487937,58.7375 C123.354598,59.2125024 122.112944,59.45 120.762937,59.45 Z M120.762937,57.2 C121.779609,57.2 122.696266,57.0125019 123.512937,56.6375 C124.329608,56.2624981 125.029601,55.7583365 125.612937,55.125 C126.196273,54.4916635 126.646269,53.7458376 126.962937,52.8875 C127.279605,52.0291624 127.437937,51.1166715 127.437937,50.15 C127.437937,49.1833285 127.279605,48.2708376 126.962937,47.4125 C126.646269,46.5541624 126.196273,45.8083365 125.612937,45.175 C125.029601,44.5416635 124.329608,44.0375019 123.512937,43.6625 C122.696266,43.2874981 121.779609,43.1 120.762937,43.1 C119.746265,43.1 118.829608,43.2874981 118.012937,43.6625 C117.196266,44.0375019 116.496273,44.5416635 115.912937,45.175 C115.329601,45.8083365 114.879605,46.5541624 114.562937,47.4125 C114.246269,48.2708376 114.087937,49.1833285 114.087937,50.15 C114.087937,51.1166715 114.246269,52.0291624 114.562937,52.8875 C114.879605,53.7458376 115.329601,54.4916635 115.912937,55.125 C116.496273,55.7583365 117.196266,56.2624981 118.012937,56.6375 C118.829608,57.0125019 119.746265,57.2 120.762937,57.2 Z M133.437937,41.3 L136.587937,41.3 L146.337937,55.85 L146.387937,55.85 L146.387937,41.3 L148.787937,41.3 L148.787937,59 L145.737937,59 L135.887937,44.45 L135.837937,44.45 L135.837937,59 L133.437937,59 L133.437937,41.3 Z" id="CHAPOROYAL-LYON" fill="#000000"></path>
                    <path d="M49.5,71.5 L185.5,71.5" id="Line" stroke="#7A0C0C" stroke-width="3" stroke-linecap="square"></path>
                </g>
            </g>
        </g>
    </g>
</svg>