<?xml version="1.0" encoding="UTF-8" standalone="no"?>
<svg width="236px" height="98px" viewBox="0 0 236 98" version="1.1" xmlns="http://www.w3.org/2000/svg" xmlns:xlink="http://www.w3.org/1999/xlink">
    <!-- Generator: Sketch 45.2 (43514) - http://www.bohemiancoding.com/sketch -->
    <title>Group 3</title>
    <desc>Created with Sketch.</desc>
    <defs></defs>
    <g id="Page-1" stroke="none" stroke-width="1" fill="none" fill-rule="evenodd">
        <g id="1-2" transform="translate(-140.000000, -75.000000)">
            <g id="Group-3" transform="translate(0.000000, 73.000000)">
                <g>
                    <path d="M158.787937,8.575 C158.087933,7.66499545 157.201276,6.96500245 156.127937,6.475 C155.054598,5.98499755 153.946276,5.74 152.802937,5.74 C151.40293,5.74 150.137109,6.00249737 149.005437,6.5275 C147.873765,7.05250263 146.905441,7.76999545 146.100437,8.68 C145.295433,9.59000455 144.671272,10.6574939 144.227937,11.8825 C143.784601,13.1075061 143.562937,14.419993 143.562937,15.82 C143.562937,17.1266732 143.772935,18.3633275 144.192937,19.53 C144.612939,20.6966725 145.2196,21.7233289 146.012937,22.61 C146.806274,23.4966711 147.774598,24.1966641 148.917937,24.71 C150.061276,25.2233359 151.356263,25.48 152.802937,25.48 C154.226277,25.48 155.474598,25.1883363 156.547937,24.605 C157.621276,24.0216638 158.531267,23.2050052 159.277937,22.155 L162.112937,24.29 C161.926269,24.5466679 161.599606,24.9141643 161.132937,25.3925 C160.666268,25.8708357 160.047941,26.3491643 159.277937,26.8275 C158.507933,27.3058357 157.580442,27.7258315 156.495437,28.0875 C155.410432,28.4491685 154.156277,28.63 152.732937,28.63 C150.772927,28.63 149.005445,28.2566704 147.430437,27.51 C145.855429,26.7633296 144.513776,25.7833394 143.405437,24.57 C142.297098,23.3566606 141.451273,21.985841 140.867937,20.4575 C140.284601,18.929159 139.992937,17.3833412 139.992937,15.82 C139.992937,13.9066571 140.307934,12.1391748 140.937937,10.5175 C141.56794,8.89582522 142.448765,7.49583922 143.580437,6.3175 C144.712109,5.13916078 146.071262,4.2233366 147.657937,3.57 C149.244612,2.9166634 150.994594,2.59 152.907937,2.59 C154.541278,2.59 156.145429,2.90499685 157.720437,3.535 C159.295445,4.16500315 160.584599,5.1333268 161.587937,6.44 L158.787937,8.575 Z M166.172937,3.22 L169.532937,3.22 L169.532937,13.51 L182.377937,13.51 L182.377937,3.22 L185.737937,3.22 L185.737937,28 L182.377937,28 L182.377937,16.66 L169.532937,16.66 L169.532937,28 L166.172937,28 L166.172937,3.22 Z M199.877937,3.22 L202.922937,3.22 L213.527937,28 L209.607937,28 L207.122937,21.875 L195.327937,21.875 L192.877937,28 L188.957937,28 L199.877937,3.22 Z M205.897937,18.935 L201.277937,7.56 L201.207937,7.56 L196.517937,18.935 L205.897937,18.935 Z M216.747937,3.22 L225.462937,3.22 C227.049612,3.22 228.356265,3.43583117 229.382937,3.8675 C230.409609,4.29916882 231.220434,4.84749668 231.815437,5.5125 C232.41044,6.17750333 232.824602,6.92416252 233.057937,7.7525 C233.291271,8.58083747 233.407937,9.37999615 233.407937,10.15 C233.407937,10.9200038 233.291271,11.7191625 233.057937,12.5475 C232.824602,13.3758375 232.41044,14.1224967 231.815437,14.7875 C231.220434,15.4525033 230.409609,16.0008312 229.382937,16.4325 C228.356265,16.8641688 227.049612,17.08 225.462937,17.08 L220.107937,17.08 L220.107937,28 L216.747937,28 L216.747937,3.22 Z M220.107937,14.14 L224.517937,14.14 C225.171274,14.14 225.818767,14.0875005 226.460437,13.9825 C227.102107,13.8774995 227.673768,13.6850014 228.175437,13.405 C228.677106,13.1249986 229.079602,12.7225026 229.382937,12.1975 C229.686272,11.6724974 229.837937,10.9900042 229.837937,10.15 C229.837937,9.3099958 229.686272,8.62750263 229.382937,8.1025 C229.079602,7.57749738 228.677106,7.1750014 228.175437,6.895 C227.673768,6.6149986 227.102107,6.42250052 226.460437,6.3175 C225.818767,6.21249948 225.171274,6.16 224.517937,6.16 L220.107937,6.16 L220.107937,14.14 Z M248.877937,28.63 C246.987927,28.63 245.249612,28.2975033 243.662937,27.6325 C242.076262,26.9674967 240.717109,26.0516725 239.585437,24.885 C238.453765,23.7183275 237.567107,22.3416746 236.925437,20.755 C236.283767,19.1683254 235.962937,17.4533426 235.962937,15.61 C235.962937,13.7666574 236.283767,12.0516746 236.925437,10.465 C237.567107,8.8783254 238.453765,7.5016725 239.585437,6.335 C240.717109,5.1683275 242.076262,4.25250332 243.662937,3.5875 C245.249612,2.92249667 246.987927,2.59 248.877937,2.59 C250.767946,2.59 252.506262,2.92249667 254.092937,3.5875 C255.679612,4.25250332 257.038765,5.1683275 258.170437,6.335 C259.302109,7.5016725 260.188767,8.8783254 260.830437,10.465 C261.472107,12.0516746 261.792937,13.7666574 261.792937,15.61 C261.792937,17.4533426 261.472107,19.1683254 260.830437,20.755 C260.188767,22.3416746 259.302109,23.7183275 258.170437,24.885 C257.038765,26.0516725 255.679612,26.9674967 254.092937,27.6325 C252.506262,28.2975033 250.767946,28.63 248.877937,28.63 Z M248.877937,25.48 C250.301277,25.48 251.584598,25.2175026 252.727937,24.6925 C253.871276,24.1674974 254.851266,23.4616711 255.667937,22.575 C256.484608,21.6883289 257.114601,20.6441727 257.557937,19.4425 C258.001272,18.2408273 258.222937,16.9633401 258.222937,15.61 C258.222937,14.2566599 258.001272,12.9791727 257.557937,11.7775 C257.114601,10.5758273 256.484608,9.5316711 255.667937,8.645 C254.851266,7.7583289 253.871276,7.05250263 252.727937,6.5275 C251.584598,6.00249737 250.301277,5.74 248.877937,5.74 C247.454596,5.74 246.171276,6.00249737 245.027937,6.5275 C243.884598,7.05250263 242.904608,7.7583289 242.087937,8.645 C241.271266,9.5316711 240.641272,10.5758273 240.197937,11.7775 C239.754601,12.9791727 239.532937,14.2566599 239.532937,15.61 C239.532937,16.9633401 239.754601,18.2408273 240.197937,19.4425 C240.641272,20.6441727 241.271266,21.6883289 242.087937,22.575 C242.904608,23.4616711 243.884598,24.1674974 245.027937,24.6925 C246.171276,25.2175026 247.454596,25.48 248.877937,25.48 Z M266.622937,3.22 L275.337937,3.22 C276.924612,3.22 278.231265,3.43583117 279.257937,3.8675 C280.284609,4.29916882 281.095434,4.84749668 281.690437,5.5125 C282.28544,6.17750333 282.699602,6.92416252 282.932937,7.7525 C283.166271,8.58083747 283.282937,9.37999615 283.282937,10.15 C283.282937,10.9433373 283.142938,11.7074963 282.862937,12.4425 C282.582936,13.1775037 282.18044,13.842497 281.655437,14.4375 C281.130434,15.032503 280.488774,15.5341646 279.730437,15.9425 C278.9721,16.3508354 278.126275,16.6016662 277.192937,16.695 L284.227937,28 L280.027937,28 L273.727937,17.08 L269.982937,17.08 L269.982937,28 L266.622937,28 L266.622937,3.22 Z M269.982937,14.14 L274.392937,14.14 C275.046274,14.14 275.693767,14.0875005 276.335437,13.9825 C276.977107,13.8774995 277.548768,13.6850014 278.050437,13.405 C278.552106,13.1249986 278.954602,12.7225026 279.257937,12.1975 C279.561272,11.6724974 279.712937,10.9900042 279.712937,10.15 C279.712937,9.3099958 279.561272,8.62750263 279.257937,8.1025 C278.954602,7.57749738 278.552106,7.1750014 278.050437,6.895 C277.548768,6.6149986 276.977107,6.42250052 276.335437,6.3175 C275.693767,6.21249948 275.046274,6.16 274.392937,6.16 L269.982937,6.16 L269.982937,14.14 Z M299.382937,28.63 C297.492927,28.63 295.754612,28.2975033 294.167937,27.6325 C292.581262,26.9674967 291.222109,26.0516725 290.090437,24.885 C288.958765,23.7183275 288.072107,22.3416746 287.430437,20.755 C286.788767,19.1683254 286.467937,17.4533426 286.467937,15.61 C286.467937,13.7666574 286.788767,12.0516746 287.430437,10.465 C288.072107,8.8783254 288.958765,7.5016725 290.090437,6.335 C291.222109,5.1683275 292.581262,4.25250332 294.167937,3.5875 C295.754612,2.92249667 297.492927,2.59 299.382937,2.59 C301.272946,2.59 303.011262,2.92249667 304.597937,3.5875 C306.184612,4.25250332 307.543765,5.1683275 308.675437,6.335 C309.807109,7.5016725 310.693767,8.8783254 311.335437,10.465 C311.977107,12.0516746 312.297937,13.7666574 312.297937,15.61 C312.297937,17.4533426 311.977107,19.1683254 311.335437,20.755 C310.693767,22.3416746 309.807109,23.7183275 308.675437,24.885 C307.543765,26.0516725 306.184612,26.9674967 304.597937,27.6325 C303.011262,28.2975033 301.272946,28.63 299.382937,28.63 Z M299.382937,25.48 C300.806277,25.48 302.089598,25.2175026 303.232937,24.6925 C304.376276,24.1674974 305.356266,23.4616711 306.172937,22.575 C306.989608,21.6883289 307.619601,20.6441727 308.062937,19.4425 C308.506272,18.2408273 308.727937,16.9633401 308.727937,15.61 C308.727937,14.2566599 308.506272,12.9791727 308.062937,11.7775 C307.619601,10.5758273 306.989608,9.5316711 306.172937,8.645 C305.356266,7.7583289 304.376276,7.05250263 303.232937,6.5275 C302.089598,6.00249737 300.806277,5.74 299.382937,5.74 C297.959596,5.74 296.676276,6.00249737 295.532937,6.5275 C294.389598,7.05250263 293.409608,7.7583289 292.592937,8.645 C291.776266,9.5316711 291.146272,10.5758273 290.702937,11.7775 C290.259601,12.9791727 290.037937,14.2566599 290.037937,15.61 C290.037937,16.9633401 290.259601,18.2408273 290.702937,19.4425 C291.146272,20.6441727 291.776266,21.6883289 292.592937,22.575 C293.409608,23.4616711 294.389598,24.1674974 295.532937,24.6925 C296.676276,25.2175026 297.959596,25.48 299.382937,25.48 Z M322.972937,17.43 L313.592937,3.22 L317.897937,3.22 L324.652937,14.105 L331.617937,3.22 L335.712937,3.22 L326.332937,17.43 L326.332937,28 L322.972937,28 L322.972937,17.43 Z M343.727937,3.22 L346.772937,3.22 L357.377937,28 L353.457937,28 L350.972937,21.875 L339.177937,21.875 L336.727937,28 L332.807937,28 L343.727937,3.22 Z M349.747937,18.935 L345.127937,7.56 L345.057937,7.56 L340.367937,18.935 L349.747937,18.935 Z M360.597937,3.22 L363.957937,3.22 L363.957937,24.85 L375.332937,24.85 L375.332937,28 L360.597937,28 L360.597937,3.22 Z" id="CHAPOROYAL" fill="#000000"></path>
                    <path d="M188.5,73.5 L324.5,73.5" id="Line" stroke="#7A0C0C" stroke-width="3" stroke-linecap="square"></path>
                </g>
                <g id="LYON-Conseil-en-Expo" fill="#4A4A4A">
                    <path d="M226.137937,43.3 L228.537937,43.3 L228.537937,58.75 L236.662937,58.75 L236.662937,61 L226.137937,61 L226.137937,43.3 Z M240.512937,53.45 L233.812937,43.3 L236.887937,43.3 L241.712937,51.075 L246.687937,43.3 L249.612937,43.3 L242.912937,53.45 L242.912937,61 L240.512937,61 L240.512937,53.45 Z M259.762937,61.45 C258.41293,61.45 257.171276,61.2125024 256.037937,60.7375 C254.904598,60.2624976 253.933774,59.6083375 253.125437,58.775 C252.3171,57.9416625 251.683773,56.958339 251.225437,55.825 C250.767101,54.691661 250.537937,53.4666732 250.537937,52.15 C250.537937,50.8333267 250.767101,49.608339 251.225437,48.475 C251.683773,47.341661 252.3171,46.3583375 253.125437,45.525 C253.933774,44.6916625 254.904598,44.0375024 256.037937,43.5625 C257.171276,43.0874976 258.41293,42.85 259.762937,42.85 C261.112944,42.85 262.354598,43.0874976 263.487937,43.5625 C264.621276,44.0375024 265.5921,44.6916625 266.400437,45.525 C267.208774,46.3583375 267.842101,47.341661 268.300437,48.475 C268.758773,49.608339 268.987937,50.8333267 268.987937,52.15 C268.987937,53.4666732 268.758773,54.691661 268.300437,55.825 C267.842101,56.958339 267.208774,57.9416625 266.400437,58.775 C265.5921,59.6083375 264.621276,60.2624976 263.487937,60.7375 C262.354598,61.2125024 261.112944,61.45 259.762937,61.45 Z M259.762937,59.2 C260.779609,59.2 261.696266,59.0125019 262.512937,58.6375 C263.329608,58.2624981 264.029601,57.7583365 264.612937,57.125 C265.196273,56.4916635 265.646269,55.7458376 265.962937,54.8875 C266.279605,54.0291624 266.437937,53.1166715 266.437937,52.15 C266.437937,51.1833285 266.279605,50.2708376 265.962937,49.4125 C265.646269,48.5541624 265.196273,47.8083365 264.612937,47.175 C264.029601,46.5416635 263.329608,46.0375019 262.512937,45.6625 C261.696266,45.2874981 260.779609,45.1 259.762937,45.1 C258.746265,45.1 257.829608,45.2874981 257.012937,45.6625 C256.196266,46.0375019 255.496273,46.5416635 254.912937,47.175 C254.329601,47.8083365 253.879605,48.5541624 253.562937,49.4125 C253.246269,50.2708376 253.087937,51.1833285 253.087937,52.15 C253.087937,53.1166715 253.246269,54.0291624 253.562937,54.8875 C253.879605,55.7458376 254.329601,56.4916635 254.912937,57.125 C255.496273,57.7583365 256.196266,58.2624981 257.012937,58.6375 C257.829608,59.0125019 258.746265,59.2 259.762937,59.2 Z M272.437937,43.3 L275.587937,43.3 L285.337937,57.85 L285.387937,57.85 L285.387937,43.3 L287.787937,43.3 L287.787937,61 L284.737937,61 L274.887937,46.45 L274.837937,46.45 L274.837937,61 L272.437937,61 L272.437937,43.3 Z M176.484937,89.01 C176.124935,88.5419977 175.66894,88.1820013 175.116937,87.93 C174.564934,87.6779987 173.99494,87.552 173.406937,87.552 C172.686933,87.552 172.03594,87.6869986 171.453937,87.957 C170.871934,88.2270013 170.373939,88.5959977 169.959937,89.064 C169.545935,89.5320023 169.224938,90.0809968 168.996937,90.711 C168.768936,91.3410032 168.654937,92.0159964 168.654937,92.736 C168.654937,93.4080034 168.762936,94.043997 168.978937,94.644 C169.194938,95.244003 169.506935,95.7719977 169.914937,96.228 C170.322939,96.6840023 170.820934,97.0439987 171.408937,97.308 C171.99694,97.5720013 172.662933,97.704 173.406937,97.704 C174.138941,97.704 174.780934,97.5540015 175.332937,97.254 C175.88494,96.9539985 176.352935,96.5340027 176.736937,95.994 L178.194937,97.092 C178.098936,97.2240007 177.930938,97.4129988 177.690937,97.659 C177.450936,97.9050012 177.132939,98.1509988 176.736937,98.397 C176.340935,98.6430012 175.86394,98.8589991 175.305937,99.045 C174.747934,99.2310009 174.102941,99.324 173.370937,99.324 C172.362932,99.324 171.453941,99.1320019 170.643937,98.748 C169.833933,98.3639981 169.14394,97.8600031 168.573937,97.236 C168.003934,96.6119969 167.568938,95.9070039 167.268937,95.121 C166.968935,94.3349961 166.818937,93.540004 166.818937,92.736 C166.818937,91.7519951 166.980935,90.8430042 167.304937,90.009 C167.628939,89.1749958 168.081934,88.455003 168.663937,87.849 C169.24594,87.242997 169.944933,86.7720017 170.760937,86.436 C171.576941,86.0999983 172.476932,85.932 173.460937,85.932 C174.300941,85.932 175.125933,86.0939984 175.935937,86.418 C176.745941,86.7420016 177.408934,87.2399966 177.924937,87.912 L176.484937,89.01 Z M186.132937,99.324 C185.160932,99.324 184.266941,99.1530017 183.450937,98.811 C182.634933,98.4689983 181.93594,97.998003 181.353937,97.398 C180.771934,96.797997 180.315939,96.0900041 179.985937,95.274 C179.655935,94.4579959 179.490937,93.5760047 179.490937,92.628 C179.490937,91.6799953 179.655935,90.7980041 179.985937,89.982 C180.315939,89.1659959 180.771934,88.458003 181.353937,87.858 C181.93594,87.257997 182.634933,86.7870017 183.450937,86.445 C184.266941,86.1029983 185.160932,85.932 186.132937,85.932 C187.104942,85.932 187.998933,86.1029983 188.814937,86.445 C189.630941,86.7870017 190.329934,87.257997 190.911937,87.858 C191.49394,88.458003 191.949935,89.1659959 192.279937,89.982 C192.609939,90.7980041 192.774937,91.6799953 192.774937,92.628 C192.774937,93.5760047 192.609939,94.4579959 192.279937,95.274 C191.949935,96.0900041 191.49394,96.797997 190.911937,97.398 C190.329934,97.998003 189.630941,98.4689983 188.814937,98.811 C187.998933,99.1530017 187.104942,99.324 186.132937,99.324 Z M186.132937,97.704 C186.864941,97.704 187.524934,97.5690014 188.112937,97.299 C188.70094,97.0289987 189.204935,96.6660023 189.624937,96.21 C190.044939,95.7539977 190.368936,95.2170031 190.596937,94.599 C190.824938,93.9809969 190.938937,93.3240035 190.938937,92.628 C190.938937,91.9319965 190.824938,91.2750031 190.596937,90.657 C190.368936,90.0389969 190.044939,89.5020023 189.624937,89.046 C189.204935,88.5899977 188.70094,88.2270013 188.112937,87.957 C187.524934,87.6869986 186.864941,87.552 186.132937,87.552 C185.400933,87.552 184.74094,87.6869986 184.152937,87.957 C183.564934,88.2270013 183.060939,88.5899977 182.640937,89.046 C182.220935,89.5020023 181.896938,90.0389969 181.668937,90.657 C181.440936,91.2750031 181.326937,91.9319965 181.326937,92.628 C181.326937,93.3240035 181.440936,93.9809969 181.668937,94.599 C181.896938,95.2170031 182.220935,95.7539977 182.640937,96.21 C183.060939,96.6660023 183.564934,97.0289987 184.152937,97.299 C184.74094,97.5690014 185.400933,97.704 186.132937,97.704 Z M195.258937,86.256 L197.526937,86.256 L204.546937,96.732 L204.582937,96.732 L204.582937,86.256 L206.310937,86.256 L206.310937,99 L204.114937,99 L197.022937,88.524 L196.986937,88.524 L196.986937,99 L195.258937,99 L195.258937,86.256 Z M209.964937,96.336 C210.276938,96.8040023 210.675935,97.1489989 211.161937,97.371 C211.647939,97.5930011 212.148934,97.704 212.664937,97.704 C212.952938,97.704 213.246935,97.6590005 213.546937,97.569 C213.846938,97.4789995 214.119936,97.3440009 214.365937,97.164 C214.611938,96.9839991 214.812936,96.7620013 214.968937,96.498 C215.124938,96.2339987 215.202937,95.9280017 215.202937,95.58 C215.202937,95.0879975 215.046938,94.7130013 214.734937,94.455 C214.422935,94.1969987 214.035939,93.9810009 213.573937,93.807 C213.111935,93.6329991 212.60794,93.4650008 212.061937,93.303 C211.515934,93.1409992 211.011939,92.9160014 210.549937,92.628 C210.087935,92.3399986 209.700938,91.9530024 209.388937,91.467 C209.076935,90.9809976 208.920937,90.3240041 208.920937,89.496 C208.920937,89.1239981 209.001936,88.7280021 209.163937,88.308 C209.325938,87.8879979 209.580935,87.5040017 209.928937,87.156 C210.276939,86.8079983 210.723934,86.5170012 211.269937,86.283 C211.81594,86.0489988 212.472933,85.932 213.240937,85.932 C213.93694,85.932 214.602934,86.027999 215.238937,86.22 C215.87494,86.412001 216.432935,86.8019971 216.912937,87.39 L215.508937,88.668 C215.292936,88.3319983 214.986939,88.062001 214.590937,87.858 C214.194935,87.653999 213.744939,87.552 213.240937,87.552 C212.760935,87.552 212.361939,87.6149994 212.043937,87.741 C211.725935,87.8670006 211.470938,88.028999 211.278937,88.227 C211.086936,88.425001 210.951937,88.6379989 210.873937,88.866 C210.795937,89.0940011 210.756937,89.303999 210.756937,89.496 C210.756937,90.0360027 210.912935,90.4499986 211.224937,90.738 C211.536938,91.0260014 211.923935,91.2599991 212.385937,91.44 C212.847939,91.6200009 213.351934,91.7819993 213.897937,91.926 C214.44394,92.0700007 214.947935,92.2709987 215.409937,92.529 C215.871939,92.7870013 216.258935,93.1349978 216.570937,93.573 C216.882938,94.0110022 217.038937,94.6139962 217.038937,95.382 C217.038937,95.9940031 216.921938,96.5459975 216.687937,97.038 C216.453936,97.5300025 216.138939,97.9439983 215.742937,98.28 C215.346935,98.6160017 214.87894,98.8739991 214.338937,99.054 C213.798934,99.2340009 213.22294,99.324 212.610937,99.324 C211.794933,99.324 211.020941,99.1800014 210.288937,98.892 C209.556933,98.6039986 208.974939,98.160003 208.542937,97.56 L209.964937,96.336 Z M219.594937,86.256 L227.820937,86.256 L227.820937,87.876 L221.322937,87.876 L221.322937,91.674 L227.370937,91.674 L227.370937,93.294 L221.322937,93.294 L221.322937,97.38 L228.144937,97.38 L228.144937,99 L219.594937,99 L219.594937,86.256 Z M230.592937,86.256 L232.320937,86.256 L232.320937,99 L230.592937,99 L230.592937,86.256 Z M235.596937,86.256 L237.324937,86.256 L237.324937,97.38 L243.174937,97.38 L243.174937,99 L235.596937,99 L235.596937,86.256 Z M249.942937,86.256 L258.168937,86.256 L258.168937,87.876 L251.670937,87.876 L251.670937,91.674 L257.718937,91.674 L257.718937,93.294 L251.670937,93.294 L251.670937,97.38 L258.492937,97.38 L258.492937,99 L249.942937,99 L249.942937,86.256 Z M260.940937,86.256 L263.208937,86.256 L270.228937,96.732 L270.264937,96.732 L270.264937,86.256 L271.992937,86.256 L271.992937,99 L269.796937,99 L262.704937,88.524 L262.668937,88.524 L262.668937,99 L260.940937,99 L260.940937,86.256 Z M280.272937,86.256 L288.498937,86.256 L288.498937,87.876 L282.000937,87.876 L282.000937,91.674 L288.048937,91.674 L288.048937,93.294 L282.000937,93.294 L282.000937,97.38 L288.822937,97.38 L288.822937,99 L280.272937,99 L280.272937,86.256 Z M294.222937,92.304 L289.938937,86.256 L292.152937,86.256 L295.464937,91.152 L298.740937,86.256 L300.900937,86.256 L296.652937,92.286 L301.332937,99 L299.064937,99 L295.410937,93.474 L291.738937,99 L289.596937,99 L294.222937,92.304 Z M302.934937,86.256 L307.416937,86.256 C308.232941,86.256 308.904934,86.3669989 309.432937,86.589 C309.96094,86.8110011 310.377935,87.0929983 310.683937,87.435 C310.989938,87.7770017 311.202936,88.1609979 311.322937,88.587 C311.442938,89.0130021 311.502937,89.423998 311.502937,89.82 C311.502937,90.216002 311.442938,90.6269979 311.322937,91.053 C311.202936,91.4790021 310.989938,91.8629983 310.683937,92.205 C310.377935,92.5470017 309.96094,92.8289989 309.432937,93.051 C308.904934,93.2730011 308.232941,93.384 307.416937,93.384 L304.662937,93.384 L304.662937,99 L302.934937,99 L302.934937,86.256 Z M304.662937,91.872 L306.930937,91.872 C307.266939,91.872 307.599935,91.8450003 307.929937,91.791 C308.259939,91.7369997 308.553936,91.6380007 308.811937,91.494 C309.069938,91.3499993 309.276936,91.1430013 309.432937,90.873 C309.588938,90.6029987 309.666937,90.2520022 309.666937,89.82 C309.666937,89.3879978 309.588938,89.0370013 309.432937,88.767 C309.276936,88.4969986 309.069938,88.2900007 308.811937,88.146 C308.553936,88.0019993 308.259939,87.9030003 307.929937,87.849 C307.599935,87.7949997 307.266939,87.768 306.930937,87.768 L304.662937,87.768 L304.662937,91.872 Z M319.458937,99.324 C318.486932,99.324 317.592941,99.1530017 316.776937,98.811 C315.960933,98.4689983 315.26194,97.998003 314.679937,97.398 C314.097934,96.797997 313.641939,96.0900041 313.311937,95.274 C312.981935,94.4579959 312.816937,93.5760047 312.816937,92.628 C312.816937,91.6799953 312.981935,90.7980041 313.311937,89.982 C313.641939,89.1659959 314.097934,88.458003 314.679937,87.858 C315.26194,87.257997 315.960933,86.7870017 316.776937,86.445 C317.592941,86.1029983 318.486932,85.932 319.458937,85.932 C320.430942,85.932 321.324933,86.1029983 322.140937,86.445 C322.956941,86.7870017 323.655934,87.257997 324.237937,87.858 C324.81994,88.458003 325.275935,89.1659959 325.605937,89.982 C325.935939,90.7980041 326.100937,91.6799953 326.100937,92.628 C326.100937,93.5760047 325.935939,94.4579959 325.605937,95.274 C325.275935,96.0900041 324.81994,96.797997 324.237937,97.398 C323.655934,97.998003 322.956941,98.4689983 322.140937,98.811 C321.324933,99.1530017 320.430942,99.324 319.458937,99.324 Z M319.458937,97.704 C320.190941,97.704 320.850934,97.5690014 321.438937,97.299 C322.02694,97.0289987 322.530935,96.6660023 322.950937,96.21 C323.370939,95.7539977 323.694936,95.2170031 323.922937,94.599 C324.150938,93.9809969 324.264937,93.3240035 324.264937,92.628 C324.264937,91.9319965 324.150938,91.2750031 323.922937,90.657 C323.694936,90.0389969 323.370939,89.5020023 322.950937,89.046 C322.530935,88.5899977 322.02694,88.2270013 321.438937,87.957 C320.850934,87.6869986 320.190941,87.552 319.458937,87.552 C318.726933,87.552 318.06694,87.6869986 317.478937,87.957 C316.890934,88.2270013 316.386939,88.5899977 315.966937,89.046 C315.546935,89.5020023 315.222938,90.0389969 314.994937,90.657 C314.766936,91.2750031 314.652937,91.9319965 314.652937,92.628 C314.652937,93.3240035 314.766936,93.9809969 314.994937,94.599 C315.222938,95.2170031 315.546935,95.7539977 315.966937,96.21 C316.386939,96.6660023 316.890934,97.0289987 317.478937,97.299 C318.06694,97.5690014 318.726933,97.704 319.458937,97.704 Z M328.584937,86.256 L333.066937,86.256 C333.882941,86.256 334.554934,86.3669989 335.082937,86.589 C335.61094,86.8110011 336.027935,87.0929983 336.333937,87.435 C336.639938,87.7770017 336.852936,88.1609979 336.972937,88.587 C337.092938,89.0130021 337.152937,89.423998 337.152937,89.82 C337.152937,90.228002 337.080938,90.6209981 336.936937,90.999 C336.792936,91.3770019 336.585938,91.7189985 336.315937,92.025 C336.045936,92.3310015 335.715939,92.588999 335.325937,92.799 C334.935935,93.009001 334.500939,93.1379998 334.020937,93.186 L337.638937,99 L335.478937,99 L332.238937,93.384 L330.312937,93.384 L330.312937,99 L328.584937,99 L328.584937,86.256 Z M330.312937,91.872 L332.580937,91.872 C332.916939,91.872 333.249935,91.8450003 333.579937,91.791 C333.909939,91.7369997 334.203936,91.6380007 334.461937,91.494 C334.719938,91.3499993 334.926936,91.1430013 335.082937,90.873 C335.238938,90.6029987 335.316937,90.2520022 335.316937,89.82 C335.316937,89.3879978 335.238938,89.0370013 335.082937,88.767 C334.926936,88.4969986 334.719938,88.2900007 334.461937,88.146 C334.203936,88.0019993 333.909939,87.9030003 333.579937,87.849 C333.249935,87.7949997 332.916939,87.768 332.580937,87.768 L330.312937,87.768 L330.312937,91.872 Z M341.922937,87.876 L337.818937,87.876 L337.818937,86.256 L347.754937,86.256 L347.754937,87.876 L343.650937,87.876 L343.650937,99 L341.922937,99 L341.922937,87.876 Z"></path>
                </g>
            </g>
        </g>
    </g>
</svg>