<?xml version="1.0" encoding="UTF-8" standalone="no"?>
<svg width="335px" height="707px" viewBox="0 0 335 707" version="1.1" xmlns="http://www.w3.org/2000/svg" xmlns:xlink="http://www.w3.org/1999/xlink">
    <!-- Generator: Sketch 45.2 (43514) - http://www.bohemiancoding.com/sketch -->
    <title>Group 8</title>
    <desc>Created with Sketch.</desc>
    <defs>
        <path d="M160.237143,2.84217094e-14 L181.355204,2.84217094e-14 L181.355208,398 C181.355208,398 -212.228385,2.84217094e-14 160.237143,2.84217094e-14 Z" id="path-1"></path>
        <path d="M160.237143,2.84217094e-14 L181.355204,2.84217094e-14 L181.355208,398 C181.355208,398 -212.228385,2.84217094e-14 160.237143,2.84217094e-14 Z" id="path-2"></path>
    </defs>
    <g id="Symbols" stroke="none" stroke-width="1" fill="none" fill-rule="evenodd" opacity="0.5">
        <g id="Group-8">
            <g transform="translate(-2.000000, 0.000000)" id="Group-3">
                <g transform="translate(0.494437, 0.000000)">
                    <g id="Rectangle-9" transform="translate(90.677604, 199.000000) scale(-1, -1) translate(-90.677604, -199.000000) ">
                        <use fill="#7E1421" fill-rule="evenodd" xlink:href="#path-1"></use>
                        <path stroke="#FFFFFF" stroke-width="1" d="M180.855208,396.775647 L180.855204,0.5 L160.237143,0.5 C73.1204984,0.5 23.5404155,22.1833856 6.86478027,62.3790969 C-7.25358656,96.410652 2.46829013,142.919175 31.5650326,198.768981 C46.8640986,228.134807 67.1021266,259.24734 91.0778933,291.279391 C110.904248,317.767753 132.147807,343.38959 153.39135,367.171452 C160.8265,375.495003 167.730398,382.993838 173.925913,389.546342 C176.094072,391.839431 178.018723,393.850347 179.677728,395.56389 C180.112525,396.012981 180.505406,396.417166 180.855208,396.775647 Z"></path>
                    </g>
                    <path d="M83.8925446,298.410742 C83.8925446,298.410742 33.7867252,118.279795 21.1020038,118.279795 C8.41728227,118.279795 83.8925446,298.410742 83.8925446,298.410742 Z" id="Oval" stroke="#FFFFFF" fill="#7E1421" transform="translate(51.778857, 208.345268) scale(-1, -1) rotate(-10.000000) translate(-51.778857, -208.345268) "></path>
                    <path d="M48.0766175,334.869017 C32.7666728,259.42264 20.8834599,221.699451 12.4269789,221.699451 C3.97049794,221.699451 15.8537108,259.42264 48.0766175,334.869017 Z" id="Oval" stroke="#FFFFFF" fill="#7E1421" transform="translate(28.933340, 278.284234) scale(-1, -1) rotate(-10.000000) translate(-28.933340, -278.284234) "></path>
                </g>
                <g transform="translate(248.035419, 508.000000) scale(-1, 1) translate(-248.035419, -508.000000) translate(157.258240, 309.000000)">
                    <g id="Rectangle-9" transform="translate(90.677604, 199.000000) scale(-1, -1) translate(-90.677604, -199.000000) ">
                        <use fill="#7E1421" fill-rule="evenodd" xlink:href="#path-2"></use>
                        <path stroke="#FFFFFF" stroke-width="1" d="M180.855208,396.775647 L180.855204,0.5 L160.237143,0.5 C73.1204984,0.5 23.5404155,22.1833856 6.86478027,62.3790969 C-7.25358656,96.410652 2.46829013,142.919175 31.5650326,198.768981 C46.8640986,228.134807 67.1021266,259.24734 91.0778933,291.279391 C110.904248,317.767753 132.147807,343.38959 153.39135,367.171452 C160.8265,375.495003 167.730398,382.993838 173.925913,389.546342 C176.094072,391.839431 178.018723,393.850347 179.677728,395.56389 C180.112525,396.012981 180.505406,396.417166 180.855208,396.775647 Z"></path>
                    </g>
                    <path d="M83.8925446,298.410742 C83.8925446,298.410742 33.7867252,118.279795 21.1020038,118.279795 C8.41728227,118.279795 83.8925446,298.410742 83.8925446,298.410742 Z" id="Oval" stroke="#FFFFFF" fill="#7E1421" transform="translate(51.778857, 208.345268) scale(-1, -1) rotate(-10.000000) translate(-51.778857, -208.345268) "></path>
                    <path d="M48.0766175,334.869017 C32.7666728,259.42264 20.8834599,221.699451 12.4269789,221.699451 C3.97049794,221.699451 15.8537108,259.42264 48.0766175,334.869017 Z" id="Oval" stroke="#FFFFFF" fill="#7E1421" transform="translate(28.933340, 278.284234) scale(-1, -1) rotate(-10.000000) translate(-28.933340, -278.284234) "></path>
                </g>
            </g>
        </g>
    </g>
</svg>