<?xml version="1.0" encoding="UTF-8" standalone="no"?>
<svg width="91px" height="60px" viewBox="0 0 91 60" version="1.1" xmlns="http://www.w3.org/2000/svg" xmlns:xlink="http://www.w3.org/1999/xlink">
    <!-- Generator: Sketch 45.2 (43514) - http://www.bohemiancoding.com/sketch -->
    <title>Group 7</title>
    <desc>Created with Sketch.</desc>
    <defs>
        <path d="M6.69326836,18.1062088 C21.989918,11.78546 37.1854497,8.62508565 52.2798637,8.62508565 C67.3627877,8.62508565 82.4243549,11.7806505 97.4645654,18.0917801 L97.4645654,18.0917799 C99.878752,19.1048139 101.449505,21.4673661 101.449505,24.0854828 L101.449505,26.226445 L101.449505,26.226445 C101.449505,28.8052119 99.9250332,31.1401159 97.5640877,32.1774079 C84.7564083,37.8045196 70.569904,40.6180754 55.0045747,40.6180754 C39.2445687,40.6180754 23.2431064,37.7337008 7.00018763,31.9649516 L7.00018763,31.9649516 C4.40764252,31.044197 2.67557068,28.5909775 2.67557068,25.8397815 L2.67557068,24.1135523 L2.67557068,24.1135523 C2.67557068,21.4825228 4.26165331,19.1109797 6.69326836,18.1062088 Z" id="path-1"></path>
    </defs>
    <g id="Page-1" stroke="none" stroke-width="1" fill="none" fill-rule="evenodd">
        <g id="1-2" transform="translate(-1324.000000, -40.000000)">
            <g id="Group-7" transform="translate(1311.000000, 18.000000)">
                <g id="Group-6" transform="translate(57.722426, 50.672952) rotate(20.000000) translate(-57.722426, -50.672952) translate(5.722426, 26.172952)">
                    <g id="Group-2" fill="#FFFFFF">
                        <path d="M6.69326836,18.1062088 C21.989918,11.78546 37.1854497,8.62508565 52.2798637,8.62508565 C67.3627877,8.62508565 82.4243549,11.7806505 97.4645654,18.0917801 L97.4645654,18.0917799 C99.878752,19.1048139 101.449505,21.4673661 101.449505,24.0854828 L101.449505,26.226445 L101.449505,26.226445 C101.449505,28.8052119 99.9250332,31.1401159 97.5640877,32.1774079 C84.7564083,37.8045196 70.569904,40.6180754 55.0045747,40.6180754 C39.2445687,40.6180754 23.2431064,37.7337008 7.00018763,31.9649516 L7.00018763,31.9649516 C4.40764252,31.044197 2.67557068,28.5909775 2.67557068,25.8397815 L2.67557068,24.1135523 L2.67557068,24.1135523 C2.67557068,21.4825228 4.26165331,19.1109797 6.69326836,18.1062088 Z" id="Rectangle-2" transform="translate(52.062538, 24.621581) rotate(10.000000) translate(-52.062538, -24.621581) "></path>
                    </g>
                    <ellipse id="Oval-3" fill="#7E1421" transform="translate(72.475582, 28.682471) rotate(30.000000) translate(-72.475582, -28.682471) " cx="72.4755818" cy="28.6824705" rx="2.90991534" ry="7.13296634"></ellipse>
                    <ellipse id="Oval-3" fill="#7E1421" transform="translate(72.475582, 28.682471) rotate(-30.000000) translate(-72.475582, -28.682471) " cx="72.4755818" cy="28.6824705" rx="2.90991534" ry="7.13296634"></ellipse>
                    <ellipse id="Oval-3" fill="#7E1421" transform="translate(51.815835, 25.098295) rotate(30.000000) translate(-51.815835, -25.098295) " cx="51.8158346" cy="25.0982949" rx="2.90991534" ry="7.13296634"></ellipse>
                    <ellipse id="Oval-3" fill="#7E1421" transform="translate(51.815835, 25.098295) rotate(-30.000000) translate(-51.815835, -25.098295) " cx="51.8158346" cy="25.0982949" rx="2.90991534" ry="7.13296634"></ellipse>
                    <ellipse id="Oval-3" fill="#7E1421" transform="translate(31.994461, 21.549504) rotate(30.000000) translate(-31.994461, -21.549504) " cx="31.9944611" cy="21.5495042" rx="2.90991534" ry="7.13296634"></ellipse>
                    <ellipse id="Oval-3" fill="#7E1421" transform="translate(31.994461, 21.549504) rotate(-30.000000) translate(-31.994461, -21.549504) " cx="31.9944611" cy="21.5495042" rx="2.90991534" ry="7.13296634"></ellipse>
                </g>
                <g id="Group-6" transform="translate(58.821097, 52.956286) rotate(-40.000000) translate(-58.821097, -52.956286) translate(6.821097, 28.456286)">
                    <g id="Group-2">
                        <g id="Rectangle-2" transform="translate(52.062538, 24.621581) rotate(10.000000) translate(-52.062538, -24.621581) ">
                            <use fill="#FFFFFF" fill-rule="evenodd" xlink:href="#path-1"></use>
                            <path stroke="#7E1421" stroke-width="1" d="M6.88421469,18.5683122 C4.63964695,19.495793 3.17557068,21.6849096 3.17557068,24.1135523 L3.17557068,25.8397815 C3.17557068,28.379347 4.77440622,30.6438573 7.16752478,31.4937847 C23.3578877,37.2438684 39.3029438,40.1180754 55.0045747,40.1180754 C70.5024614,40.1180754 84.6205136,37.3180954 97.362966,31.7196415 C99.5423003,30.7621412 100.949505,28.6068452 100.949505,26.226445 L100.949505,24.0854828 C100.949505,21.6687597 99.4995792,19.4879423 97.2710992,18.5528341 C82.2909659,12.2669139 67.2949634,9.12508565 52.2798637,9.12508565 C37.252587,9.12508565 22.1216783,12.2720197 6.88421469,18.5683122 Z"></path>
                        </g>
                    </g>
                    <ellipse id="Oval-3" fill="#7E1421" transform="translate(72.475582, 28.682471) rotate(30.000000) translate(-72.475582, -28.682471) " cx="72.4755818" cy="28.6824705" rx="2.90991534" ry="7.13296634"></ellipse>
                    <ellipse id="Oval-3" fill="#7E1421" transform="translate(72.475582, 28.682471) rotate(-30.000000) translate(-72.475582, -28.682471) " cx="72.4755818" cy="28.6824705" rx="2.90991534" ry="7.13296634"></ellipse>
                    <ellipse id="Oval-3" fill="#7E1421" transform="translate(51.815835, 25.098295) rotate(30.000000) translate(-51.815835, -25.098295) " cx="51.8158346" cy="25.0982949" rx="2.90991534" ry="7.13296634"></ellipse>
                    <ellipse id="Oval-3" fill="#7E1421" transform="translate(51.815835, 25.098295) rotate(-30.000000) translate(-51.815835, -25.098295) " cx="51.8158346" cy="25.0982949" rx="2.90991534" ry="7.13296634"></ellipse>
                    <ellipse id="Oval-3" fill="#7E1421" transform="translate(31.994461, 21.549504) rotate(30.000000) translate(-31.994461, -21.549504) " cx="31.9944611" cy="21.5495042" rx="2.90991534" ry="7.13296634"></ellipse>
                    <ellipse id="Oval-3" fill="#7E1421" transform="translate(31.994461, 21.549504) rotate(-30.000000) translate(-31.994461, -21.549504) " cx="31.9944611" cy="21.5495042" rx="2.90991534" ry="7.13296634"></ellipse>
                </g>
            </g>
        </g>
    </g>
</svg>