<?xml version="1.0" encoding="UTF-8" standalone="no"?>
<svg width="102px" height="97px" viewBox="0 0 102 97" version="1.1" xmlns="http://www.w3.org/2000/svg" xmlns:xlink="http://www.w3.org/1999/xlink">
    <!-- Generator: Sketch 45.2 (43514) - http://www.bohemiancoding.com/sketch -->
    <title>LOGO</title>
    <desc>Created with Sketch.</desc>
    <defs></defs>
    <g id="Page-1" stroke="none" stroke-width="1" fill="none" fill-rule="evenodd">
        <g id="1-2" transform="translate(-1222.000000, -135.000000)">
            <g id="LOGO" transform="translate(1223.000000, 135.000000)">
                <g transform="translate(-30.000000, -39.000000)">
                    <text id="CHAPOROYAL" font-family="Avenir-Medium, Avenir" font-size="15" font-weight="400" fill="#B5B5B5">
                        <tspan x="29.165" y="135">CHAPOROYAL</tspan>
                    </text>
                    <text id="LYON" font-family="Avenir-Medium, Avenir" font-size="10" font-weight="400" fill="#B5B5B5">
                        <tspan x="66.76" y="119">LYON</tspan>
                    </text>
                    <g id="Oval-2" transform="translate(80.000000, 80.000000) rotate(45.000000) translate(-80.000000, -80.000000) translate(23.000000, 25.000000)" fill="#D8D8D8">
                        <path d="M57.1608859,36.0478772 C62.1666866,36.0478772 50.3046364,70.6289561 50.3046364,45.5 C50.3046364,20.3710439 61.9419968,0 56.9361961,0 C51.9303954,0 63.7465828,20.3710439 63.7465828,45.5 C63.7465828,70.6289561 52.1550853,36.0478772 57.1608859,36.0478772 Z"></path>
                        <path d="M56.8562496,91.0478772 C61.8620503,91.0478772 50,125.628956 50,100.5 C50,75.3710439 61.6373604,55 56.6315597,55 C51.6257591,55 63.4419465,75.3710439 63.4419465,100.5 C63.4419465,125.628956 51.8504489,91.0478772 56.8562496,91.0478772 Z" transform="translate(56.720973, 82.326533) scale(1, -1) translate(-56.720973, -82.326533) "></path>
                        <path d="M86.4618092,63.4423176 C91.4676099,63.4423176 79.6055596,98.0233965 79.6055596,72.8944404 C79.6055596,47.7654843 91.24292,27.3944404 86.2371194,27.3944404 C81.2313187,27.3944404 93.0475061,47.7654843 93.0475061,72.8944404 C93.0475061,98.0233965 81.4560085,63.4423176 86.4618092,63.4423176 Z" transform="translate(86.326533, 54.720973) scale(1, -1) rotate(90.000000) translate(-86.326533, -54.720973) "></path>
                        <path d="M27.4618092,63.4423176 C32.4676099,63.4423176 20.6055596,98.0233965 20.6055596,72.8944404 C20.6055596,47.7654843 32.24292,27.3944404 27.2371194,27.3944404 C22.2313187,27.3944404 34.0475061,47.7654843 34.0475061,72.8944404 C34.0475061,98.0233965 22.4560085,63.4423176 27.4618092,63.4423176 Z" transform="translate(27.326533, 54.720973) scale(-1, -1) rotate(90.000000) translate(-27.326533, -54.720973) "></path>
                    </g>
                </g>
            </g>
        </g>
    </g>
</svg>